<?xml version="1.0" standalone="no"?>
<!DOCTYPE svg PUBLIC "-//W3C//DTD SVG 1.1//EN" "http://www.w3.org/Graphics/SVG/1.1/DTD/svg11.dtd" >
<svg xmlns="http://www.w3.org/2000/svg">
<metadata>
This is a custom SVG webfont generated by Font Squirrel.
Copyright   : Copyright c 2003 by Bitstream Inc All Rights ReservedCopyright c 2006 by Tavmjong Bah All Rights ReservedDejaVu changes are in public domain
Foundry     : DejaVu fonts team
Foundry URL : httpdejavusourceforgenet
</metadata>
<defs>
<font id="DejaVuSansBook" horiz-adv-x="1303" >
<font-face units-per-em="2048" ascent="1556" descent="-492" />
<missing-glyph horiz-adv-x="651" />
<glyph unicode=" "  horiz-adv-x="651" />
<glyph unicode="&#x09;" horiz-adv-x="651" />
<glyph unicode="&#xa0;" horiz-adv-x="651" />
<glyph unicode="!" horiz-adv-x="821" d="M309 0v254h203v-254h-203zM309 838v655h203v-655l-20 -357h-162z" />
<glyph unicode="&#x22;" horiz-adv-x="942" d="M197 938v555h170v-555h-170zM575 938v555h170v-555h-170z" />
<glyph unicode="#" horiz-adv-x="1716" d="M158 414v153h352l84 334h-322v154h361l102 415h162l-104 -415h292l105 415h160l-103 -415h312v-154h-351l-82 -334h318v-153h-357l-104 -414h-160l103 414h-293l-103 -414h-161l104 414h-315zM672 567h293l82 334h-291z" />
<glyph unicode="$" d="M170 92v180q102 -64 206.5 -96.5t215.5 -33.5v456q-221 36 -321.5 122t-100.5 236q0 163 109 257t313 108v235h100v-232q93 -4 180 -19.5t170 -42.5v-175q-83 42 -170.5 65t-179.5 27v-427q227 -35 334 -125t107 -246q0 -169 -113.5 -266.5t-327.5 -112.5v-303h-100 l-1 301q-105 2 -210 24.5t-211 67.5zM354 973q0 -86 56.5 -134t181.5 -69v410q-116 -13 -177 -66t-61 -141zM692 145q127 17 191.5 72t64.5 145q0 88 -61.5 140t-194.5 76v-433z" />
<glyph unicode="%" horiz-adv-x="1946" d="M113 1114q0 186 93 296t251 110t252 -109.5t94 -296.5q0 -189 -93.5 -298t-252.5 -109t-251.5 109.5t-92.5 297.5zM272 1114q0 -132 49 -206t136 -74t136.5 74t49.5 206q0 129 -50 204t-136 75t-135.5 -74.5t-49.5 -204.5zM426 -29l934 1549h160l-934 -1549h-160z M1143 377q0 188 93.5 297.5t252.5 109.5q158 0 251 -110t93 -297t-93.5 -296.5t-250.5 -109.5q-160 0 -253 109.5t-93 296.5zM1303 377q0 -130 49.5 -204.5t136.5 -74.5q85 0 134.5 74.5t49.5 204.5q0 131 -49.5 205.5t-134.5 74.5q-87 0 -136.5 -74t-49.5 -206z" />
<glyph unicode="&#x26;" horiz-adv-x="1597" d="M129 461q0 128 67 240.5t201 211.5q-48 63 -73 125.5t-25 122.5q0 162 111 260.5t295 98.5q83 0 165.5 -18t167.5 -54v-182q-87 47 -166 71.5t-147 24.5q-105 0 -170.5 -55.5t-65.5 -143.5q0 -51 29.5 -102.5t120.5 -145.5l508 -520q59 89 92 190.5t39 215.5h186 q-12 -132 -64 -261t-145 -255l279 -285h-252l-143 147q-104 -89 -218 -132.5t-245 -43.5q-241 0 -394 137.5t-153 352.5zM322 473q0 -146 106 -243t266 -97q95 0 178 31.5t156 95.5l-530 543q-91 -81 -133.5 -161.5t-42.5 -168.5z" />
<glyph unicode="'" horiz-adv-x="563" d="M197 938v555h170v-555h-170z" />
<glyph unicode="(" horiz-adv-x="799" d="M176 643q0 223 74 449t225 462h160q-134 -230 -199 -455t-65 -456t65.5 -457.5t198.5 -455.5h-160q-150 235 -224.5 462t-74.5 451z" />
<glyph unicode=")" horiz-adv-x="799" d="M164 -270q133 229 198.5 455.5t65.5 457.5t-65.5 456t-198.5 455h160q150 -236 224.5 -462t74.5 -449q0 -224 -74.5 -451t-224.5 -462h-160z" />
<glyph unicode="*" horiz-adv-x="1024" d="M61 858l359 195l-359 194l58 99l336 -203v377h114v-377l336 203l58 -99l-359 -194l359 -195l-58 -98l-336 203v-377h-114v377l-336 -203z" />
<glyph unicode="+" horiz-adv-x="1716" d="M217 557v170h557v557h168v-557h557v-170h-557v-557h-168v557h-557z" />
<glyph unicode="," horiz-adv-x="651" d="M158 -238l82 320v172h211v-172l-164 -320h-129z" />
<glyph unicode="-" horiz-adv-x="739" d="M100 479v164h539v-164h-539z" />
<glyph unicode="." horiz-adv-x="651" d="M219 0v254h211v-254h-211z" />
<glyph unicode="/" horiz-adv-x="690" d="M0 -190l520 1683h170l-520 -1683h-170z" />
<glyph unicode="0" d="M135 745q0 378 132.5 576.5t383.5 198.5t383.5 -198.5t132.5 -576.5q0 -377 -132.5 -575.5t-383.5 -198.5t-383.5 198.5t-132.5 575.5zM338 745q0 -307 78.5 -460.5t234.5 -153.5q157 0 235.5 153.5t78.5 460.5q0 308 -78.5 461.5t-235.5 153.5q-156 0 -234.5 -153.5 t-78.5 -461.5z" />
<glyph unicode="1" d="M225 1237v184l357 72h202v-1323h330v-170h-860v170h330v1139z" />
<glyph unicode="2" d="M150 0v170q115 119 313.5 319.5t249.5 258.5q97 109 135.5 184.5t38.5 148.5q0 119 -83.5 194t-217.5 75q-95 0 -200.5 -33t-225.5 -100v204q122 49 228 74t194 25q232 0 370 -116t138 -310q0 -92 -34.5 -174.5t-125.5 -194.5q-25 -29 -159 -167.5t-378 -387.5h705v-170 h-948z" />
<glyph unicode="3" d="M156 45v195q84 -49 184 -74t209 -25q190 0 289.5 75t99.5 218q0 132 -92.5 206.5t-257.5 74.5h-174v166h182q149 0 228 59.5t79 171.5q0 115 -81.5 176.5t-233.5 61.5q-83 0 -178 -18t-209 -56v180q115 32 215.5 48t189.5 16q230 0 364 -104.5t134 -282.5 q0 -124 -71 -209.5t-202 -118.5q145 -31 226.5 -129t81.5 -242q0 -221 -152 -342t-432 -121q-94 0 -193.5 18.5t-205.5 55.5z" />
<glyph unicode="4" d="M100 352v195l621 946h254v-973h213v-168h-213v-352h-201v352h-674zM264 520h510v797z" />
<glyph unicode="5" d="M158 35v203q90 -49 186 -73t203 -24q173 0 274 91t101 247t-101 247t-274 91q-81 0 -161.5 -18t-164.5 -56v750h793v-170h-608v-366q44 15 88 22.5t88 7.5q250 0 396 -137t146 -371q0 -241 -150 -374.5t-423 -133.5q-94 0 -191.5 16t-201.5 48z" />
<glyph unicode="6" d="M143 745q0 354 168 564.5t451 210.5q76 0 153.5 -15t161.5 -45v-184q-76 36 -153.5 55t-153.5 19q-200 0 -305.5 -135t-120.5 -408q59 87 148 133.5t196 46.5q225 0 355.5 -136.5t130.5 -371.5q0 -230 -136 -369t-362 -139q-259 0 -396 198.5t-137 575.5zM381 479 q0 -161 79.5 -254.5t215.5 -93.5t215.5 93.5t79.5 254.5q0 162 -79.5 255t-215.5 93t-215.5 -93t-79.5 -255z" />
<glyph unicode="7" d="M168 1323v170h960v-86l-542 -1407h-211l510 1323h-717z" />
<glyph unicode="8" d="M139 420q0 143 82 242t228 133q-130 32 -202.5 121t-72.5 217q0 179 127.5 283t349.5 104q223 0 350 -104t127 -283q0 -128 -72.5 -217t-201.5 -121q146 -34 227.5 -133t81.5 -242q0 -217 -132.5 -333t-379.5 -116t-379.5 116t-132.5 333zM342 420q0 -135 82.5 -212 t226.5 -77t227 77.5t83 211.5q0 135 -82.5 212t-227.5 77q-144 0 -226.5 -77t-82.5 -212zM375 1114q0 -116 72.5 -181t203.5 -65q130 0 203.5 65t73.5 181t-73.5 181t-203.5 65q-131 0 -203.5 -65t-72.5 -181z" />
<glyph unicode="9" d="M129 1012q0 230 136 369t362 139q259 0 395.5 -198.5t136.5 -576.5q0 -353 -167.5 -563.5t-450.5 -210.5q-76 0 -154 15t-162 45v184q76 -36 154 -55t153 -19q200 0 305.5 134.5t120.5 408.5q-58 -86 -147 -132t-197 -46q-224 0 -354.5 135.5t-130.5 370.5zM332 1012 q0 -162 79.5 -255t215.5 -93t215.5 93t79.5 255q0 161 -79.5 254.5t-215.5 93.5t-215.5 -93.5t-79.5 -254.5z" />
<glyph unicode=":" horiz-adv-x="690" d="M240 0v254h211v-254h-211zM240 805v254h211v-254h-211z" />
<glyph unicode=";" horiz-adv-x="690" d="M158 -238l82 320v172h211v-172l-164 -320h-129zM240 805v254h211v-254h-211z" />
<glyph unicode="&#x3c;" horiz-adv-x="1716" d="M217 559v166l1282 465v-182l-1032 -367l1032 -365v-182z" />
<glyph unicode="=" horiz-adv-x="1716" d="M217 352v170h1282v-170h-1282zM217 762v168h1282v-168h-1282z" />
<glyph unicode="&#x3e;" horiz-adv-x="1716" d="M217 94v182l1030 365l-1030 367v182l1282 -465v-166z" />
<glyph unicode="?" horiz-adv-x="1087" d="M147 1219v188q94 57 190.5 85t199.5 28q184 0 295.5 -97t111.5 -256q0 -76 -36 -144.5t-126 -154.5l-88 -86q-47 -47 -66.5 -73.5t-27.5 -51.5q-6 -21 -9 -51t-3 -82v-123h-191v154q0 101 28 166t118 151l90 89q57 53 82.5 100t25.5 96q0 89 -65.5 144t-173.5 55 q-79 0 -168.5 -35t-186.5 -102zM391 0v254h203v-254h-203z" />
<glyph unicode="@" horiz-adv-x="2048" d="M135 543q0 182 68 347t194 290q129 127 298 194.5t358 67.5q212 0 393.5 -87t304.5 -247q75 -98 114.5 -213t39.5 -238q0 -263 -159 -415t-439 -158v154q-60 -77 -137.5 -113.5t-180.5 -36.5q-172 0 -279.5 124.5t-107.5 324.5t108 325t279 125q103 0 181 -37.5 t137 -113.5v131h143v-736q146 22 228.5 133.5t82.5 288.5q0 107 -31.5 201t-95.5 174q-104 131 -253.5 200.5t-325.5 69.5q-123 0 -236 -32.5t-209 -96.5q-157 -102 -245.5 -267.5t-88.5 -358.5q0 -159 57.5 -298t166.5 -245q105 -104 243 -158.5t295 -54.5 q129 0 253.5 43.5t228.5 124.5l90 -111q-125 -97 -272.5 -148.5t-299.5 -51.5q-185 0 -349 65.5t-292 190.5t-195 289.5t-67 353.5zM762 537q0 -143 71 -224.5t195 -81.5q123 0 193.5 82t70.5 224q0 140 -72 222.5t-194 82.5q-121 0 -192.5 -82t-71.5 -223z" />
<glyph unicode="A" horiz-adv-x="1401" d="M16 0l570 1493h229l569 -1493h-210l-136 383h-673l-136 -383h-213zM426 551h549l-275 743z" />
<glyph unicode="B" horiz-adv-x="1405" d="M201 0v1493h516q231 0 356 -96t125 -273q0 -137 -64 -218t-188 -101q149 -32 231.5 -133.5t82.5 -253.5q0 -200 -136 -309t-387 -109h-536zM403 166h324q163 0 241.5 67.5t78.5 206.5q0 140 -78.5 206.5t-241.5 66.5h-324v-547zM403 877h299q148 0 220.5 55.5t72.5 169.5 q0 113 -72.5 169t-220.5 56h-299v-450z" />
<glyph unicode="C" horiz-adv-x="1430" d="M115 745q0 360 195 567.5t534 207.5q134 0 252.5 -35.5t222.5 -106.5v-213q-102 95 -217.5 142t-245.5 47q-256 0 -392 -156.5t-136 -452.5q0 -295 136 -451.5t392 -156.5q130 0 245.5 47t217.5 142v-211q-106 -72 -224.5 -108t-250.5 -36q-339 0 -534 207.5t-195 566.5z " />
<glyph unicode="D" horiz-adv-x="1577" d="M201 0v1493h415q434 0 637 -180.5t203 -564.5q0 -386 -204 -567t-636 -181h-415zM403 166h244q309 0 452.5 140t143.5 442q0 300 -143.5 439.5t-452.5 139.5h-244v-1161z" />
<glyph unicode="E" horiz-adv-x="1294" d="M201 0v1493h944v-170h-742v-442h711v-170h-711v-541h760v-170h-962z" />
<glyph unicode="F" horiz-adv-x="1178" d="M201 0v1493h858v-170h-656v-440h592v-170h-592v-713h-202z" />
<glyph unicode="G" horiz-adv-x="1587" d="M115 745q0 366 197.5 570.5t547.5 204.5q146 0 277.5 -36t242.5 -106v-215q-112 95 -238 143t-265 48q-274 0 -411.5 -153t-137.5 -456q0 -302 137.5 -455t411.5 -153q107 0 191 18.5t151 57.5v401h-330v166h530v-641q-117 -83 -258 -125.5t-301 -42.5 q-350 0 -547.5 204.5t-197.5 569.5z" />
<glyph unicode="H" horiz-adv-x="1540" d="M201 0v1493h202v-612h734v612h202v-1493h-202v711h-734v-711h-202z" />
<glyph unicode="I" horiz-adv-x="604" d="M201 0v1493h202v-1493h-202z" />
<glyph unicode="J" horiz-adv-x="604" d="M-106 -240h63q134 0 189 75t55 269v1389h202v-1389q0 -270 -102.5 -392t-329.5 -122h-77v170z" />
<glyph unicode="K" horiz-adv-x="1343" d="M201 0v1493h202v-631l670 631h260l-741 -696l794 -797h-266l-717 719v-719h-202z" />
<glyph unicode="L" horiz-adv-x="1141" d="M201 0v1493h202v-1323h727v-170h-929z" />
<glyph unicode="M" horiz-adv-x="1767" d="M201 0v1493h301l381 -1016l383 1016h301v-1493h-197v1311l-385 -1024h-203l-385 1024v-1311h-196z" />
<glyph unicode="N" horiz-adv-x="1532" d="M201 0v1493h272l662 -1249v1249h196v-1493h-272l-662 1249v-1249h-196z" />
<glyph unicode="O" horiz-adv-x="1612" d="M115 745q0 354 188.5 564.5t503.5 210.5q314 0 502 -210.5t188 -564.5q0 -353 -188 -563.5t-502 -210.5q-315 0 -503.5 210t-188.5 564zM328 745q0 -282 129.5 -446t349.5 -164t348.5 164t128.5 446q0 283 -128.5 447t-348.5 164t-349.5 -164t-129.5 -447z" />
<glyph unicode="P" horiz-adv-x="1235" d="M201 0v1493h456q251 0 379.5 -113.5t128.5 -332.5q0 -221 -128.5 -334t-379.5 -113h-254v-600h-202zM403 766h254q141 0 218 73t77 208q0 134 -77 207t-218 73h-254v-561z" />
<glyph unicode="Q" horiz-adv-x="1612" d="M115 745q0 354 188.5 564.5t503.5 210.5q314 0 502 -210.5t188 -564.5q0 -260 -104.5 -445t-302.5 -273l266 -291h-244l-221 239q-33 -2 -50.5 -3t-33.5 -1q-315 0 -503.5 210.5t-188.5 563.5zM328 745q0 -282 129.5 -446t349.5 -164t348.5 164t128.5 446 q0 283 -128.5 447t-348.5 164t-349.5 -164t-129.5 -447z" />
<glyph unicode="R" horiz-adv-x="1423" d="M201 0v1493h456q256 0 382 -107t126 -323q0 -141 -65.5 -234t-190.5 -129q65 -22 126.5 -94t123.5 -198l205 -408h-217l-191 383q-74 150 -143.5 199t-189.5 49h-220v-631h-202zM403 797h254q146 0 220.5 67.5t74.5 198.5t-74.5 197.5t-220.5 66.5h-254v-530z" />
<glyph unicode="S" horiz-adv-x="1300" d="M135 1094q0 198 139.5 312t384.5 114q105 0 214 -19t223 -57v-197q-115 55 -217 82t-197 27q-165 0 -254.5 -64t-89.5 -182q0 -99 59.5 -149.5t225.5 -81.5l122 -25q226 -43 333.5 -151.5t107.5 -290.5q0 -217 -145.5 -329t-426.5 -112q-106 0 -225.5 24t-247.5 71v208 q123 -69 241 -104t232 -35q173 0 267 68t94 194q0 110 -67.5 172t-221.5 93l-123 24q-226 45 -327 141t-101 267z" />
<glyph unicode="T" horiz-adv-x="1251" d="M-6 1323v170h1263v-170h-530v-1323h-203v1323h-530z" />
<glyph unicode="U" horiz-adv-x="1499" d="M178 561v932h203v-907q0 -240 87 -345.5t282 -105.5q194 0 281 105.5t87 345.5v907h203v-932q0 -292 -144.5 -441t-426.5 -149q-283 0 -427.5 149t-144.5 441z" />
<glyph unicode="V" horiz-adv-x="1401" d="M16 1493h211l473 -1257l474 1257h210l-569 -1493h-229z" />
<glyph unicode="W" horiz-adv-x="2025" d="M68 1493h204l314 -1262l313 1262h227l314 -1262l313 1262h205l-375 -1493h-254l-315 1296l-318 -1296h-254z" />
<glyph unicode="X" horiz-adv-x="1403" d="M61 0l533 797l-465 696h217l371 -555l373 555h217l-480 -717l512 -776h-217l-420 635l-423 -635h-218z" />
<glyph unicode="Y" horiz-adv-x="1251" d="M-4 1493h217l414 -614l411 614h217l-528 -782v-711h-203v711z" />
<glyph unicode="Z" horiz-adv-x="1403" d="M92 0v154l944 1169h-921v170h1173v-154l-944 -1169h967v-170h-1219z" />
<glyph unicode="[" horiz-adv-x="799" d="M176 -270v1826h424v-143h-240v-1540h240v-143h-424z" />
<glyph unicode="\" horiz-adv-x="690" d="M0 1493h170l520 -1683h-170z" />
<glyph unicode="]" horiz-adv-x="799" d="M199 -127h239v1540h-239v143h424v-1826h-424v143z" />
<glyph unicode="^" horiz-adv-x="1716" d="M217 936l543 557h196l543 -557h-201l-440 395l-440 -395h-201z" />
<glyph unicode="_" horiz-adv-x="1024" d="M-20 -340h1064v-143h-1064v143z" />
<glyph unicode="`" horiz-adv-x="1024" d="M170 1638h197l282 -374h-153z" />
<glyph unicode="a" horiz-adv-x="1255" d="M123 326q0 189 126.5 285t377.5 96h258v18q0 127 -83.5 196.5t-234.5 69.5q-96 0 -187 -23t-175 -69v170q101 39 196 58.5t185 19.5q243 0 363 -126t120 -382v-639h-184v170q-63 -102 -157 -150.5t-230 -48.5q-172 0 -273.5 96.5t-101.5 258.5zM307 338 q0 -98 64.5 -155.5t175.5 -57.5q153 0 245.5 108.5t92.5 288.5v41h-183q-223 0 -309 -51t-86 -174z" />
<glyph unicode="b" horiz-adv-x="1300" d="M186 0v1556h185v-606q58 100 146.5 148.5t211.5 48.5q204 0 331.5 -162t127.5 -426t-127.5 -426t-331.5 -162q-123 0 -211.5 48.5t-146.5 148.5v-168h-185zM371 559q0 -203 83.5 -318.5t229.5 -115.5t229.5 115.5t83.5 318.5t-83.5 318.5t-229.5 115.5t-229.5 -115.5 t-83.5 -318.5z" />
<glyph unicode="c" horiz-adv-x="1126" d="M113 559q0 274 150.5 431t412.5 157q85 0 166 -17.5t157 -52.5v-172q-78 43 -156.5 64.5t-158.5 21.5q-179 0 -278 -113.5t-99 -318.5t99 -318.5t278 -113.5q80 0 158.5 21.5t156.5 64.5v-170q-77 -36 -159.5 -54t-175.5 -18q-253 0 -402 159t-149 429z" />
<glyph unicode="d" horiz-adv-x="1300" d="M113 559q0 264 127.5 426t330.5 162q124 0 212.5 -48.5t146.5 -148.5v606h184v-1556h-184v168q-58 -100 -146.5 -148.5t-212.5 -48.5q-203 0 -330.5 162t-127.5 426zM303 559q0 -203 83.5 -318.5t229.5 -115.5t230 115.5t84 318.5t-84 318.5t-230 115.5t-229.5 -115.5 t-83.5 -318.5z" />
<glyph unicode="e" horiz-adv-x="1260" d="M113 549q0 275 148.5 436.5t400.5 161.5q226 0 357.5 -145.5t131.5 -395.5v-90h-846q12 -190 114.5 -289.5t285.5 -99.5q106 0 205.5 26t197.5 78v-174q-99 -42 -203 -64t-211 -22q-268 0 -424.5 156t-156.5 422zM311 659l656 1q-2 151 -84.5 241t-218.5 90 q-154 0 -246.5 -87t-106.5 -245z" />
<glyph unicode="f" horiz-adv-x="721" d="M47 977v143h176v78q0 187 87 272.5t276 85.5h174v-153h-176q-99 0 -137.5 -40t-38.5 -144v-99h303v-143h-303v-977h-185v977h-176z" />
<glyph unicode="g" horiz-adv-x="1300" d="M113 573q0 260 126 417t332 157q124 0 213 -49t146 -148v170h184v-981q0 -286 -127 -425.5t-389 -139.5q-97 0 -183 14.5t-167 44.5v179q81 -44 160 -65t161 -21q181 0 271 94.5t90 285.5v91q-57 -99 -146 -148t-213 -49q-206 0 -332 157t-126 416zM303 573 q0 -199 82.5 -309t230.5 -110q149 0 231.5 110t82.5 309q0 200 -82.5 310t-231.5 110q-148 0 -230.5 -110t-82.5 -310z" />
<glyph unicode="h" horiz-adv-x="1298" d="M186 0v1556h185v-610q66 101 155.5 151t206.5 50q193 0 292 -119.5t99 -351.5v-676h-184v670q0 159 -62 238t-186 79q-149 0 -235 -95t-86 -259v-633h-185z" />
<glyph unicode="i" horiz-adv-x="569" d="M193 0v1120h184v-1120h-184zM193 1323v233h184v-233h-184z" />
<glyph unicode="j" horiz-adv-x="569" d="M-37 -270h49q105 0 143 48.5t38 201.5v1140h184v-1140q0 -214 -81.5 -310t-262.5 -96h-70v156zM193 1323v233h184v-233h-184z" />
<glyph unicode="k" horiz-adv-x="1186" d="M186 0v1556h185v-919l549 483h235l-594 -524l619 -596h-240l-569 547v-547h-185z" />
<glyph unicode="l" horiz-adv-x="569" d="M193 0v1556h184v-1556h-184z" />
<glyph unicode="m" horiz-adv-x="1995" d="M186 0v1120h185v-174q63 103 151 152t209 49q122 0 207.5 -62t126.5 -180q69 124 165 183t226 59q175 0 270 -122.5t95 -348.5v-676h-185v670q0 161 -57 239t-174 78q-143 0 -226 -95t-83 -259v-633h-185v670q0 162 -57 239.5t-176 77.5q-141 0 -224 -95.5t-83 -258.5 v-633h-185z" />
<glyph unicode="n" horiz-adv-x="1298" d="M186 0v1120h185v-174q66 101 155.5 151t206.5 50q193 0 292 -119.5t99 -351.5v-676h-184v670q0 159 -62 238t-186 79q-149 0 -235 -95t-86 -259v-633h-185z" />
<glyph unicode="o" horiz-adv-x="1253" d="M113 559q0 276 136.5 432t377.5 156q240 0 377 -156t137 -432q0 -275 -137 -431.5t-377 -156.5q-241 0 -377.5 156.5t-136.5 431.5zM307 559q0 -201 85.5 -316.5t234.5 -115.5q147 0 233 116t86 316q0 199 -86 315.5t-233 116.5q-148 0 -234 -115.5t-86 -316.5z" />
<glyph unicode="p" horiz-adv-x="1300" d="M186 -426v1546h185v-170q58 100 146.5 148.5t211.5 48.5q204 0 331.5 -162t127.5 -426t-127.5 -426t-331.5 -162q-123 0 -211.5 48.5t-146.5 148.5v-594h-185zM371 559q0 -203 83.5 -318.5t229.5 -115.5t229.5 115.5t83.5 318.5t-83.5 318.5t-229.5 115.5t-229.5 -115.5 t-83.5 -318.5z" />
<glyph unicode="q" horiz-adv-x="1300" d="M113 559q0 264 127.5 426t330.5 162q124 0 212.5 -48.5t146.5 -148.5v170h184v-1546h-184v594q-58 -100 -146.5 -148.5t-212.5 -48.5q-203 0 -330.5 162t-127.5 426zM303 559q0 -203 83.5 -318.5t229.5 -115.5t230 115.5t84 318.5t-84 318.5t-230 115.5t-229.5 -115.5 t-83.5 -318.5z" />
<glyph unicode="r" horiz-adv-x="842" d="M186 0v1120h185v-174q58 102 151 151.5t226 49.5q19 0 42 -2.5t51 -7.5l1 -189q-31 18 -67.5 26.5t-80.5 8.5q-156 0 -239.5 -101.5t-83.5 -291.5v-590h-185z" />
<glyph unicode="s" horiz-adv-x="1067" d="M111 41v190q102 -53 201 -79.5t196 -26.5q130 0 200 44.5t70 125.5q0 75 -50.5 115t-221.5 77l-64 15q-171 36 -247 110.5t-76 204.5q0 158 112 244t318 86q102 0 192 -15t166 -45v-174q-78 40 -162 60t-174 20q-137 0 -205.5 -42t-68.5 -126q0 -64 49 -100.5t197 -69.5 l63 -14q196 -42 278.5 -118.5t82.5 -213.5q0 -156 -123.5 -247t-339.5 -91q-90 0 -187.5 17.5t-205.5 52.5z" />
<glyph unicode="t" horiz-adv-x="803" d="M55 977v143h135v318h185v-318h379v-143h-379v-608q0 -137 37.5 -176t152.5 -39h189v-154h-189q-213 0 -294 79.5t-81 289.5v608h-135z" />
<glyph unicode="u" horiz-adv-x="1298" d="M174 442v678h184v-671q0 -159 62 -238.5t186 -79.5q149 0 235.5 95t86.5 259v635h184v-1120h-184v172q-67 -102 -155.5 -151.5t-205.5 -49.5q-193 0 -293 120t-100 351zM637 1147z" />
<glyph unicode="v" horiz-adv-x="1212" d="M61 1120h195l350 -940l350 940h195l-420 -1120h-250z" />
<glyph unicode="w" horiz-adv-x="1675" d="M86 1120h184l230 -874l229 874h217l230 -874l229 874h184l-293 -1120h-217l-241 918l-242 -918h-217z" />
<glyph unicode="x" horiz-adv-x="1212" d="M59 0l435 586l-398 534h217l297 -399l297 399h217l-405 -545l426 -575h-217l-326 440l-326 -440h-217z" />
<glyph unicode="y" horiz-adv-x="1212" d="M61 1120h195l350 -876l350 876h195l-492 -1224q-78 -200 -152 -261t-198 -61h-147v154h108q76 0 118 36t93 170l33 84z" />
<glyph unicode="z" horiz-adv-x="1075" d="M88 0v168l692 805h-667v147h874v-168l-692 -805h692v-147h-899z" />
<glyph unicode="{" d="M256 541v143h61q143 0 196.5 57.5t53.5 206.5v240q0 221 84.5 294.5t333.5 73.5h62v-143h-68q-141 0 -184 -44t-43 -185v-248q0 -157 -45.5 -228t-155.5 -96q111 -27 156 -98t45 -227v-248q0 -141 43 -185t184 -44h68v-144h-62q-249 0 -333.5 74t-84.5 295v239 q0 151 -54 209t-196 58h-61z" />
<glyph unicode="|" horiz-adv-x="690" d="M260 -483v2048h170v-2048h-170z" />
<glyph unicode="}" d="M256 -190h70q140 0 182.5 43t42.5 186v248q0 156 45 227t156 98q-111 25 -156 96t-45 228v248q0 142 -42.5 185.5t-182.5 43.5h-70v143h63q249 0 332.5 -73.5t83.5 -294.5v-240q0 -149 54 -206.5t196 -57.5h62v-143h-62q-142 0 -196 -58t-54 -209v-239q0 -221 -83.5 -295 t-332.5 -74h-63v144z" />
<glyph unicode="~" horiz-adv-x="1716" d="M217 467v178q105 79 194.5 113.5t186.5 34.5q110 0 257 -60l15 -6q8 -3 22 -8q155 -62 249 -62q86 0 170.5 38t187.5 122v-178q-105 -79 -194.5 -113t-186.5 -34q-110 0 -256 59q-11 4 -16 6q-7 3 -22 8q-155 62 -249 62q-88 0 -174 -38.5t-184 -121.5z" />
<glyph unicode="&#xa2;" d="M172 559q0 258 132.5 411t373.5 175v287h102l1 -287q73 -4 141.5 -20.5t136.5 -47.5v-172q-74 41 -142 62t-136 24l-1 -864q70 5 138.5 26t140.5 60v-170q-65 -30 -133.5 -47.5t-145.5 -24.5v-284h-102v288q-241 20 -373.5 173.5t-132.5 410.5zM367 559q0 -185 82 -298 t229 -130v856q-147 -18 -229 -131t-82 -297z" />
<glyph unicode="&#xa3;" d="M129 0v170h236v465h-199v143h199v238q0 261 107 382.5t339 121.5q61 0 136.5 -15.5t154.5 -44.5v-182q-76 41 -144 61.5t-129 20.5q-148 0 -206 -77.5t-58 -289.5v-215h391v-143h-391v-465h557v-170h-993z" />
<glyph unicode="&#xa5;" d="M82 1493h190l379 -700l377 700h191l-318 -586h264v-123h-331l-84 -155v-51h415v-123h-413v-455h-201v455h-416v123h416v51l-84 155h-332v123h264z" />
<glyph unicode="&#xa8;" horiz-adv-x="1024" d="M215 1350v202h203v-202h-203zM606 1350v202h203v-202h-203z" />
<glyph unicode="&#xa9;" horiz-adv-x="2048" d="M283 741q0 154 54 285t163 240t240.5 164t283.5 55t283.5 -55t240.5 -164t163 -240t54 -285q0 -152 -54 -282.5t-163 -239.5t-240.5 -164t-283.5 -55t-283.5 55t-240.5 164t-163 239.5t-54 282.5zM383 741q0 -129 48 -242.5t142 -207.5t207 -141.5t244 -47.5 q132 0 245.5 47.5t207.5 141.5q93 93 139.5 206t46.5 244q0 133 -47 246.5t-139 206.5q-94 94 -207.5 141t-245.5 47q-131 0 -244 -47t-207 -141t-142 -208.5t-48 -244.5zM582 741q0 209 125.5 330t341.5 121q73 0 141 -14t133 -41v-129q-66 33 -131 49t-131 16 q-149 0 -232.5 -87.5t-83.5 -244.5q0 -159 85.5 -246t240.5 -87q64 0 125 15.5t127 49.5v-127q-67 -29 -135.5 -43t-138.5 -14q-216 0 -341.5 122t-125.5 330z" />
<glyph unicode="&#xab;" horiz-adv-x="1253" d="M158 559v82l469 418v-191l-301 -268l301 -268v-191zM592 559v82l469 418v-191l-301 -268l301 -268v-191z" />
<glyph unicode="&#xad;" horiz-adv-x="739" d="M100 479v164h539v-164h-539z" />
<glyph unicode="&#xae;" horiz-adv-x="2048" d="M283 741q0 154 54 285t163 240t240.5 164t283.5 55t283.5 -55t240.5 -164t163 -240t54 -285q0 -152 -54 -282.5t-163 -239.5t-240.5 -164t-283.5 -55t-283.5 55t-240.5 164t-163 239.5t-54 282.5zM383 741q0 -129 48 -242.5t142 -207.5t207 -141.5t244 -47.5 q132 0 245.5 47.5t207.5 141.5q93 93 139.5 206t46.5 244q0 133 -47 246.5t-139 206.5q-94 94 -207.5 141t-245.5 47q-131 0 -244 -47t-207 -141t-142 -208.5t-48 -244.5zM719 338v836h285q176 0 263 -59.5t87 -180.5q0 -86 -52.5 -142t-148.5 -73q24 -8 57.5 -46.5 t79.5 -111.5l137 -223h-172l-129 209q-59 96 -95.5 121.5t-90.5 25.5h-66v-356h-155zM874 795h123q110 0 153.5 31t43.5 106q0 76 -44 107.5t-153 31.5h-123v-276z" />
<glyph unicode="&#xaf;" horiz-adv-x="1024" d="M213 1378v148h598v-148h-598z" />
<glyph unicode="&#xb4;" horiz-adv-x="1024" d="M371 1262l280 376h199l-326 -376h-153z" />
<glyph unicode="&#xb8;" horiz-adv-x="1024" d="M291 -240q34 -17 71 -24.5t84 -7.5q59 0 89 24t30 70q0 30 -21.5 73.5t-66.5 104.5h119q55 -62 82 -114.5t27 -100.5q0 -89 -60 -134.5t-178 -45.5q-46 0 -89.5 6t-86.5 18v131z" />
<glyph unicode="&#xbb;" horiz-adv-x="1253" d="M193 141v191l301 268l-301 268v191l469 -418v-82zM627 141v191l301 268l-301 268v191l469 -418v-82z" />
<glyph unicode="&#xc6;" horiz-adv-x="1995" d="M8 0l625 1493h1212v-170h-741v-442h711v-170h-711v-541h760v-170h-963v383h-528l-160 -383h-205zM442 551h459v784h-129z" />
<glyph unicode="&#xcf;" horiz-adv-x="604" d="M201 0v1493h202v-1493h-202zM6 1667v203h203v-203h-203zM397 1667v203h203v-203h-203z" />
<glyph unicode="&#xe6;" horiz-adv-x="2011" d="M123 326q0 189 126.5 285t377.5 96h258v18q0 127 -83.5 196.5t-234.5 69.5q-96 0 -187 -23t-175 -69v170q101 39 196 58.5t185 19.5q142 0 248.5 -48t160.5 -136q74 90 180 137t238 47q226 0 358 -145.5t132 -395.5v-90h-846q12 -191 114 -291t285 -100q104 0 204 26.5 t200 79.5v-174q-100 -42 -204 -64t-210 -22q-167 0 -291 60.5t-201 179.5q-73 -120 -181 -180t-251 -60q-189 0 -294 93.5t-105 261.5zM307 338q0 -98 64.5 -155.5t175.5 -57.5q153 0 245.5 108.5t92.5 288.5v41h-183q-223 0 -309 -51t-86 -174zM1063 659l655 1 q-1 151 -83.5 241t-219.5 90q-153 0 -245.5 -87t-106.5 -245z" />
<glyph unicode="&#xef;" horiz-adv-x="569" d="M193 0v1120h184v-1120h-184zM285 1147zM-12 1350v202h203v-202h-203zM379 1350v202h203v-202h-203z" />
<glyph unicode="&#x131;" horiz-adv-x="569" d="M193 0v1120h184v-1120h-184zM285 1147z" />
<glyph unicode="&#x18f;" horiz-adv-x="1612" d="M117 780h1167q0 268 -137.5 421t-411.5 153q-139 0 -265 -48t-238 -143v215q111 70 242.5 106t277.5 36q350 0 547.5 -204.5t197.5 -570.5q0 -353 -188 -563.5t-502 -210.5q-329 0 -509.5 219.5t-180.5 589.5zM337 614q13 -195 140.5 -337t329.5 -142t329.5 142 t140.5 337h-940z" />
<glyph unicode="&#x19f;" horiz-adv-x="1612" d="M115 745q0 354 188.5 564.5t502.5 210.5q315 0 503 -210.5t188 -563.5q0 -354 -188 -564.5t-503 -210.5q-314 0 -502.5 210t-188.5 564zM328 710q8 -257 133.5 -416t345.5 -159t344 158.5t132 416.5h-955zM338 877h940q-14 195 -141 337t-329 142t-330 -142t-140 -337z " />
<glyph unicode="&#x1b7;" horiz-adv-x="1364" d="M160 1323v170h1024v-154l-411 -490q106 0 234 -56q98 -42 184 -151q81 -104 81 -242q0 -220 -152 -342q-152 -121 -432 -121q-119 0 -244 19q-126 18 -260 55v195q106 -49 233 -74q126 -25 263 -25q192 0 291 75q100 75 100 218q0 134 -92 207q-93 74 -258 74h-174v152 l385 490h-772z" />
<glyph unicode="&#x259;" horiz-adv-x="1260" d="M113 512v90h846q-12 190 -114.5 289.5t-285.5 99.5q-106 0 -205.5 -26t-197.5 -78v174q99 42 203 64t211 22q268 0 424.5 -156t156.5 -422q0 -275 -148.5 -436.5t-400.5 -161.5q-226 0 -357.5 145.5t-131.5 395.5zM297 458q2 -151 84.5 -241t218.5 -90q154 0 246.5 87 t106.5 245z" />
<glyph unicode="&#x275;" horiz-adv-x="1253" d="M113 559q0 276 136.5 432t377.5 156q240 0 377 -156t137 -432q0 -275 -137 -431.5t-377 -156.5q-241 0 -377.5 156.5t-136.5 431.5zM309 507q0 -148 84 -264t233 -116t233 116t84 264h-634zM311 671h628q-18 127 -92.5 223.5t-221.5 96.5t-221.5 -96.5t-92.5 -223.5z" />
<glyph unicode="&#x292;" horiz-adv-x="1183" d="M88 -167q84 -49 184 -74t209 -25q190 0 289 75q100 75 100 218q0 132 -92 207q-93 74 -258 74h-174v166l430 499h-667v147h874v-168l-411 -476q106 0 234 -56q98 -42 184 -151q81 -104 81 -242q0 -221 -152 -342t-432 -121q-94 0 -193 18q-100 19 -206 56v195z" />
<glyph unicode="&#x2c6;" horiz-adv-x="1024" d="M193 1262l245 376h148l245 -376h-139l-180 245l-180 -245h-139z" />
<glyph unicode="&#x2d8;" horiz-adv-x="1024" d="M199 1608h118q11 -75 59.5 -112.5t135.5 -37.5q86 0 134 37t61 113h118q-10 -143 -89 -215t-224 -72t-224 72t-89 215z" />
<glyph unicode="&#x2da;" horiz-adv-x="1024" d="M238 1524q0 115 79.5 194.5t194.5 79.5t194.5 -79.5t79.5 -194.5t-79.5 -195t-194.5 -80t-194.5 80t-79.5 195zM360 1524q0 -65 43.5 -108.5t108.5 -43.5q64 0 108 44t44 108q0 63 -44 107t-108 44q-65 0 -108.5 -43.5t-43.5 -107.5z" />
<glyph unicode="&#x2db;" horiz-adv-x="1024" d="M332 -215q0 48 26.5 100.5t81.5 114.5h119q-45 -61 -66.5 -105t-21.5 -75q0 -46 27.5 -69t81.5 -23q32 0 63 7.5t62 22.5v-133q-38 -10 -72 -15t-64 -5q-122 0 -179.5 43.5t-57.5 136.5z" />
<glyph unicode="&#x2dc;" horiz-adv-x="1024" d="M182 1309q2 135 53 208.5t142 73.5q38 0 70 -14t69 -47l57 -55q22 -20 38.5 -29.5t29.5 -9.5q38 0 56 36.5t20 118.5h125q-2 -135 -53 -208.5t-142 -73.5q-38 0 -70 14t-69 47l-57 55q-22 20 -38.5 29.5t-29.5 9.5q-38 0 -56 -36.5t-20 -118.5h-125z" />
<glyph unicode="&#x2dd;" horiz-adv-x="1024" d="M240 1262l190 376h170l-223 -376h-137zM559 1262l205 376h178l-248 -376h-135z" />
<glyph unicode="&#x30f;" horiz-adv-x="0" d="M-931 1638h178l205 -376h-135zM-589 1638h170l190 -376h-137z" />
<glyph unicode="&#x3c9;" horiz-adv-x="1715" d="M135 565q0 235 155 555h198q-143 -320 -143 -560q0 -433 222 -433q203 0 203 538h170q0 -538 203 -538q222 0 222 433q0 240 -143 560h198q155 -320 155 -555q0 -594 -415 -594q-272 0 -305 299q-41 -299 -305 -299q-415 0 -415 594z" />
<glyph unicode="&#x400;" horiz-adv-x="1294" d="M201 0v1493h944v-170h-742v-442h711v-170h-711v-541h760v-170h-962zM506 1899h187l196 -264h-153z" />
<glyph unicode="&#x401;" horiz-adv-x="1294" d="M201 0v1493h944v-170h-742v-442h711v-170h-711v-541h760v-170h-962zM372 1667v203h203v-203h-203zM763 1667v203h203v-203h-203z" />
<glyph unicode="&#x402;" horiz-adv-x="1610" d="M-6 1323v170h1163v-170h-530v-442h417q186 0 297 -116.5t111 -354.5v-306q0 -270 -102 -392t-330 -122h-76v170h62q134 0 189.5 75t55.5 269v290q0 159 -62 238t-186 79h-376v-711h-203v1323h-430z" />
<glyph unicode="&#x403;" horiz-adv-x="1249" d="M201 0v1493h929v-170h-727v-1323h-202zM545 1635l196 264h185l-228 -264h-153z" />
<glyph unicode="&#x404;" horiz-adv-x="1430" d="M115 746q0 359 195 566.5t530 207.5q271 0 479 -142v-213q-211 189 -467 189q-264 0 -383 -142.5t-141 -381.5h798v-170h-798q22 -239 141 -381t383 -142q256 0 467 189v-211q-212 -144 -479 -144q-335 0 -530 207.5t-195 567.5z" />
<glyph unicode="&#x405;" horiz-adv-x="1300" d="M135 1094q0 198 139.5 312t384.5 114q105 0 214 -19t223 -57v-197q-115 55 -217 82t-197 27q-165 0 -254.5 -64t-89.5 -182q0 -99 59.5 -149.5t225.5 -81.5l122 -25q226 -43 333.5 -151.5t107.5 -290.5q0 -217 -145.5 -329t-426.5 -112q-106 0 -225.5 24t-247.5 71v208 q123 -69 241 -104t232 -35q173 0 267 68t94 194q0 110 -67.5 172t-221.5 93l-123 24q-226 45 -327 141t-101 267z" />
<glyph unicode="&#x406;" horiz-adv-x="604" d="M201 0v1493h202v-1493h-202z" />
<glyph unicode="&#x407;" horiz-adv-x="604" d="M201 0v1493h202v-1493h-202zM6 1667v203h203v-203h-203zM397 1667v203h203v-203h-203z" />
<glyph unicode="&#x408;" horiz-adv-x="604" d="M-106 -240h63q134 0 189 75t55 269v1389h202v-1389q0 -270 -102.5 -392t-329.5 -122h-77v170z" />
<glyph unicode="&#x409;" horiz-adv-x="2240" d="M84 0v170q217 47 291.5 258t74.5 811v254h888v-614h234q251 0 387 -109t136 -330q0 -222 -136 -331t-387 -109h-436v1323h-485v-184q0 -566 -100 -824.5t-467 -314.5zM1338 166h224q320 0 320 273q0 139 -78.5 206.5t-241.5 67.5h-224v-547z" />
<glyph unicode="&#x40a;" horiz-adv-x="2140" d="M201 0v1493h202v-612h634v612h202v-614h234q251 0 387 -109t136 -331q0 -221 -136 -330t-387 -109h-436v711h-634v-711h-202zM1239 166h224q161 0 240.5 67.5t79.5 205.5q0 139 -78.5 206.5t-241.5 67.5h-224v-547z" />
<glyph unicode="&#x40b;" horiz-adv-x="1610" d="M-6 1323v170h1163v-170h-530v-442h417q186 0 297 -116.5t111 -354.5v-410h-201v394q0 159 -62 238t-186 79h-376v-711h-203v1323h-430z" />
<glyph unicode="&#x40c;" horiz-adv-x="1454" d="M201 0v1493h202v-738l722 738h259l-577 -590l607 -903h-220l-518 769l-273 -279v-490h-202zM609 1635l196 264h185l-228 -264h-153z" />
<glyph unicode="&#x40d;" horiz-adv-x="1532" d="M201 0v1493h196v-1249l662 1249h272v-1493h-196v1249l-662 -1249h-272zM497 1899h187l196 -264h-153z" />
<glyph unicode="&#x40e;" horiz-adv-x="1248" d="M313 1901h118q13 -54 62.5 -82.5t132.5 -28.5q82 0 130.5 27.5t64.5 83.5h118q-10 -119 -90 -180.5t-223 -61.5q-144 0 -223.5 61t-89.5 181zM35 1493h217l371 -876l373 876h217l-558 -1312q-21 -50 -53 -88q-79 -93 -330 -93h-77v170h63q119 0 165 27q28 17 46 59 l45 106z" />
<glyph unicode="&#x40f;" horiz-adv-x="1540" d="M201 0v1493h202v-1323h734v1323h202v-1493h-484v-321h-170v321h-484z" />
<glyph unicode="&#x410;" horiz-adv-x="1401" d="M16 0l570 1493h229l569 -1493h-210l-136 383h-673l-136 -383h-213zM426 551h549l-275 743z" />
<glyph unicode="&#x411;" horiz-adv-x="1405" d="M201 0v1493h954v-166h-752v-448h334q251 0 387 -109t136 -331q0 -221 -131.5 -330t-391.5 -109h-536zM403 166h324q163 0 241.5 67.5t78.5 205.5q0 139 -78.5 206.5t-241.5 67.5h-324v-547z" />
<glyph unicode="&#x412;" horiz-adv-x="1405" d="M201 0v1493h516q231 0 356 -96t125 -273q0 -137 -64 -218t-188 -101q149 -32 231.5 -133.5t82.5 -253.5q0 -200 -136 -309t-387 -109h-536zM403 166h324q163 0 241.5 67.5t78.5 206.5q0 140 -78.5 206.5t-241.5 66.5h-324v-547zM403 877h299q148 0 220.5 55.5t72.5 169.5 q0 113 -72.5 169t-220.5 56h-299v-450z" />
<glyph unicode="&#x413;" horiz-adv-x="1249" d="M201 0v1493h929v-170h-727v-1323h-202z" />
<glyph unicode="&#x414;" horiz-adv-x="1600" d="M101 170h71q134 63 172 183q97 308 97 858v282h888v-1323h170v-491h-170v321h-1058v-321h-170v491zM467 170h660v1153h-485v-212q0 -499 -112 -830q-23 -68 -63 -111z" />
<glyph unicode="&#x415;" horiz-adv-x="1294" d="M201 0v1493h944v-170h-742v-442h711v-170h-711v-541h760v-170h-962z" />
<glyph unicode="&#x416;" horiz-adv-x="2206" d="M40 0l580 904l-545 589h245l682 -738v738h202v-738l682 738h245l-545 -589l580 -904h-211l-493 769l-258 -279v-490h-202v490l-258 279l-493 -769h-211z" />
<glyph unicode="&#x417;" horiz-adv-x="1313" d="M135 65v208q153 -89 237.5 -110.5t208.5 -21.5q188 0 292 72t104 221q0 132 -92.5 206.5t-287.5 74.5h-204v166h212q179 0 258 59.5t79 171.5q0 115 -81.5 176.5t-279.5 61.5q-134 0 -180 -12t-251 -89v197q113 40 231 57t204 17q246 0 402 -104.5t156 -282.5 q0 -124 -71 -209.5t-202 -118.5q145 -31 226.5 -129t81.5 -242q0 -230 -177.5 -346.5t-415.5 -116.5q-122 0 -264 33t-186 61z" />
<glyph unicode="&#x418;" horiz-adv-x="1532" d="M201 0v1493h196v-1249l662 1249h272v-1493h-196v1249l-662 -1249h-272z" />
<glyph unicode="&#x419;" horiz-adv-x="1532" d="M201 0v1493h196v-1249l662 1249h272v-1493h-196v1249l-662 -1249h-272zM444 1901h118q13 -54 62.5 -82.5t132.5 -28.5q82 0 130.5 27.5t64.5 83.5h118q-10 -119 -90 -180.5t-223 -61.5q-144 0 -223.5 61t-89.5 181z" />
<glyph unicode="&#x41a;" horiz-adv-x="1454" d="M201 0v1493h202v-738l722 738h259l-577 -590l607 -903h-220l-518 769l-273 -279v-490h-202z" />
<glyph unicode="&#x41b;" horiz-adv-x="1540" d="M84 0v170q217 47 279 211q87 258 87 858v254h888v-1493h-202v1323h-485v-184q0 -566 -102 -830q-98 -253 -465 -309z" />
<glyph unicode="&#x41c;" horiz-adv-x="1767" d="M201 0v1493h301l381 -1016l383 1016h301v-1493h-197v1311l-385 -1024h-203l-385 1024v-1311h-196z" />
<glyph unicode="&#x41d;" horiz-adv-x="1540" d="M201 0v1493h202v-612h734v612h202v-1493h-202v711h-734v-711h-202z" />
<glyph unicode="&#x41e;" horiz-adv-x="1612" d="M115 745q0 354 188.5 564.5t503.5 210.5q314 0 502 -210.5t188 -564.5q0 -353 -188 -563.5t-502 -210.5q-315 0 -503.5 210t-188.5 564zM328 745q0 -282 129.5 -446t349.5 -164t348.5 164t128.5 446q0 283 -128.5 447t-348.5 164t-349.5 -164t-129.5 -447z" />
<glyph unicode="&#x41f;" horiz-adv-x="1540" d="M201 0v1493h1138v-1493h-202v1323h-734v-1323h-202z" />
<glyph unicode="&#x420;" horiz-adv-x="1235" d="M201 0v1493h456q251 0 379.5 -113.5t128.5 -332.5q0 -221 -128.5 -334t-379.5 -113h-254v-600h-202zM403 766h254q141 0 218 73t77 208q0 134 -77 207t-218 73h-254v-561z" />
<glyph unicode="&#x421;" horiz-adv-x="1430" d="M115 745q0 360 195 567.5t534 207.5q134 0 252.5 -35.5t222.5 -106.5v-213q-102 95 -217.5 142t-245.5 47q-256 0 -392 -156.5t-136 -452.5q0 -295 136 -451.5t392 -156.5q130 0 245.5 47t217.5 142v-211q-106 -72 -224.5 -108t-250.5 -36q-339 0 -534 207.5t-195 566.5z " />
<glyph unicode="&#x422;" horiz-adv-x="1251" d="M-6 1323v170h1263v-170h-530v-1323h-203v1323h-530z" />
<glyph unicode="&#x423;" horiz-adv-x="1248" d="M35 1493h217l371 -876l373 876h217l-558 -1312q-21 -50 -53 -88q-79 -93 -330 -93h-77v170h63q119 0 165 27q28 17 46 59l45 106z" />
<glyph unicode="&#x424;" horiz-adv-x="1763" d="M121 765q0 265 171.5 415.5t488.5 173.5v139h203v-139q317 -23 487.5 -172.5t170.5 -416.5q0 -265 -170.5 -414.5t-487.5 -172.5v-178h-203v178q-317 23 -488.5 172.5t-171.5 414.5zM334 765q0 -197 115 -298.5t332 -121.5v841q-217 -20 -332 -122t-115 -299zM984 345 q217 20 331 121.5t114 298.5t-114 299t-331 122v-841z" />
<glyph unicode="&#x425;" horiz-adv-x="1403" d="M61 0l533 797l-465 696h217l371 -555l373 555h217l-480 -717l512 -776h-217l-420 635l-423 -635h-218z" />
<glyph unicode="&#x426;" horiz-adv-x="1590" d="M201 0v1493h202v-1323h734v1323h202v-1323h170v-491h-170v321h-1138z" />
<glyph unicode="&#x427;" horiz-adv-x="1404" d="M175 1083v410h201v-394q0 -159 62 -238t186 -79h376v711h203v-1493h-203v612h-417q-186 0 -297 116.5t-111 354.5z" />
<glyph unicode="&#x428;" horiz-adv-x="2190" d="M201 0v1493h202v-1323h591v1323h202v-1323h591v1323h202v-1493h-1788z" />
<glyph unicode="&#x429;" horiz-adv-x="2240" d="M201 0v1493h202v-1323h591v1323h202v-1323h591v1323h202v-1323h170v-491h-170v321h-1788z" />
<glyph unicode="&#x42a;" horiz-adv-x="1705" d="M60 1323v170h643v-614h334q251 0 387 -109t136 -331q0 -221 -136 -330t-387 -109h-536v1323h-441zM703 166h324q161 0 241 68q79 67 79 205q0 139 -79 207q-78 67 -241 67h-324v-547z" />
<glyph unicode="&#x42b;" horiz-adv-x="1807" d="M201 0v1493h202v-614h334q251 0 387 -109t136 -331q0 -221 -136 -330t-387 -109h-536zM403 166h324q163 0 241 68q79 67 79 205q0 139 -79 207q-78 67 -241 67h-324v-547zM1404 0v1493h202v-1493h-202z" />
<glyph unicode="&#x42c;" horiz-adv-x="1405" d="M201 0v1493h202v-614h334q251 0 387 -109t136 -331q0 -221 -136 -330t-387 -109h-536zM403 166h324q163 0 241 68q79 67 79 205q0 139 -79 207q-78 67 -241 67h-324v-547z" />
<glyph unicode="&#x42d;" horiz-adv-x="1430" d="M111 115v211q211 -189 467 -189q264 0 383 142t141 381h-798v170h798q-22 239 -141 381.5t-383 142.5q-256 0 -467 -189v213q208 142 479 142q335 0 530 -207.5t195 -566.5q0 -360 -195 -567.5t-530 -207.5q-267 0 -479 144z" />
<glyph unicode="&#x42e;" horiz-adv-x="2211" d="M211 0v1493h202v-662h304q14 280 194 485q180 204 495 204q314 0 502 -210q188 -211 188 -565q0 -353 -188 -563q-188 -211 -502 -211q-315 0 -495 205t-194 485h-304v-661h-202zM927 745q0 -282 129 -446q130 -164 350 -164t348 164q129 164 129 446q0 283 -129 447 q-128 164 -348 164t-350 -164q-129 -164 -129 -447z" />
<glyph unicode="&#x42f;" horiz-adv-x="1423" d="M136 0l408 653q-100 26 -228 110.5t-128 299.5q0 206 130 318t388 112h516v-1493h-202v631h-270l-394 -631h-220zM411 1063q0 -131 74.5 -198.5t220.5 -67.5h314v530h-314q-146 0 -220.5 -66.5t-74.5 -197.5z" />
<glyph unicode="&#x430;" horiz-adv-x="1255" d="M123 326q0 189 126.5 285t377.5 96h258v18q0 127 -83.5 196.5t-234.5 69.5q-96 0 -187 -23t-175 -69v170q101 39 196 58.5t185 19.5q243 0 363 -126t120 -382v-639h-184v170q-63 -102 -157 -150.5t-230 -48.5q-172 0 -273.5 96.5t-101.5 258.5zM307 338 q0 -98 64.5 -155.5t175.5 -57.5q153 0 245.5 108.5t92.5 288.5v41h-183q-223 0 -309 -51t-86 -174z" />
<glyph unicode="&#x431;" horiz-adv-x="1263" d="M112 948q0 160 58 278q91 185 248.5 265t421.5 82q122 1 176 18l51 -146q-49 -20 -94 -21l-250 -17q-126 -9 -202 -53q-199 -117 -218 -270l-7 -56q130 119 341 119q240 0 377 -156t137 -432q0 -275 -137 -431.5t-377 -156.5q-241 0 -374 152t-140 436l-6 229 q-5 119 -5 160zM317 559q0 -201 85.5 -316.5t234.5 -115.5q147 0 233 116t86 316q0 199 -86 315.5t-233 116.5q-148 0 -234 -115.5t-86 -316.5z" />
<glyph unicode="&#x432;" horiz-adv-x="1207" d="M186 0v1120h438q197 0 303 -72t106 -205q0 -103 -54 -163.5t-160 -75.5q127 -24 197 -100t70 -190q0 -150 -115.5 -232t-329.5 -82h-455zM370 147h262q126 0 192 47.5t66 137.5t-66 137t-192 47h-262v-369zM370 663h242q104 0 170 41.5t66 115.5t-66 113.5t-170 39.5 h-242v-310z" />
<glyph unicode="&#x433;" horiz-adv-x="1076" d="M186 0v1120h790v-147h-605v-973h-185z" />
<glyph unicode="&#x434;" horiz-adv-x="1416" d="M107 147h69q91 40 131 125q98 211 98 636v212h757v-973h147v-430h-147v283h-908v-283h-147v430zM443 147h534v826h-387v-140q0 -412 -118 -632z" />
<glyph unicode="&#x435;" horiz-adv-x="1260" d="M113 549q0 275 148.5 436.5t400.5 161.5q226 0 357.5 -145.5t131.5 -395.5v-90h-846q12 -190 114.5 -289.5t285.5 -99.5q106 0 205.5 26t197.5 78v-174q-99 -42 -203 -64t-211 -22q-268 0 -424.5 156t-156.5 422zM311 659l656 1q-2 151 -84.5 241t-218.5 90 q-154 0 -246.5 -87t-106.5 -245z" />
<glyph unicode="&#x436;" horiz-adv-x="1845" d="M70 0l460 689l-402 431h214l489 -526v526h183v-526l489 526h214l-402 -431l460 -689h-197l-377 566l-187 -201v-365h-183v365l-187 201l-377 -566h-197z" />
<glyph unicode="&#x437;" horiz-adv-x="1089" d="M133 27v171q71 -37 156 -55.5t178 -18.5q151 0 235.5 56t84.5 146q0 88 -75 141.5t-212 53.5h-148v152h155q116 0 183.5 44.5t67.5 114.5q0 64 -69.5 110t-188.5 46q-71 0 -151.5 -13t-177.5 -42v167q98 24 183 36t161 12q196 0 309.5 -78.5t113.5 -219.5 q0 -93 -60 -157.5t-172 -88.5q124 -24 193 -97t69 -181q0 -173 -129 -264t-367 -91q-80 0 -164.5 14t-174.5 42z" />
<glyph unicode="&#x438;" horiz-adv-x="1331" d="M186 0v1120h183v-897l539 897h237v-1120h-183v899l-540 -899h-236z" />
<glyph unicode="&#x439;" horiz-adv-x="1331" d="M186 0v1120h183v-897l539 897h237v-1120h-183v899l-540 -899h-236zM353 1556h118q11 -75 59.5 -112.5t135.5 -37.5q86 0 134 37t61 113h118q-10 -143 -89 -215t-224 -72t-224 72t-89 215z" />
<glyph unicode="&#x43a;" horiz-adv-x="1237" d="M186 0v1120h183v-526l519 526h226l-428 -433l483 -687h-206l-397 565l-197 -200v-365h-183z" />
<glyph unicode="&#x43b;" horiz-adv-x="1309" d="M76 0v153q182 28 238 154q68 177 68 630v183h757v-1120h-184v973h-389v-111q0 -432 -88 -626q-94 -207 -402 -236z" />
<glyph unicode="&#x43c;" horiz-adv-x="1545" d="M186 0v1120h269l318 -750l319 750h267v-1120h-185v944l-309 -729h-184l-310 729v-944h-185z" />
<glyph unicode="&#x43d;" horiz-adv-x="1339" d="M186 0v1120h185v-457h597v457h185v-1120h-185v516h-597v-516h-185z" />
<glyph unicode="&#x43e;" horiz-adv-x="1253" d="M113 559q0 276 136.5 432t377.5 156q240 0 377 -156t137 -432q0 -275 -137 -431.5t-377 -156.5q-241 0 -377.5 156.5t-136.5 431.5zM307 559q0 -201 85.5 -316.5t234.5 -115.5q147 0 233 116t86 316q0 199 -86 315.5t-233 116.5q-148 0 -234 -115.5t-86 -316.5z" />
<glyph unicode="&#x43f;" horiz-adv-x="1339" d="M186 0v1120h967v-1120h-185v973h-597v-973h-185z" />
<glyph unicode="&#x440;" horiz-adv-x="1300" d="M186 -426v1546h185v-170q58 100 146.5 148.5t211.5 48.5q204 0 331.5 -162t127.5 -426t-127.5 -426t-331.5 -162q-123 0 -211.5 48.5t-146.5 148.5v-594h-185zM371 559q0 -203 83.5 -318.5t229.5 -115.5t229.5 115.5t83.5 318.5t-83.5 318.5t-229.5 115.5t-229.5 -115.5 t-83.5 -318.5z" />
<glyph unicode="&#x441;" horiz-adv-x="1126" d="M113 559q0 274 150.5 431t412.5 157q85 0 166 -17.5t157 -52.5v-172q-78 43 -156.5 64.5t-158.5 21.5q-179 0 -278 -113.5t-99 -318.5t99 -318.5t278 -113.5q80 0 158.5 21.5t156.5 64.5v-170q-77 -36 -159.5 -54t-175.5 -18q-253 0 -402 159t-149 429z" />
<glyph unicode="&#x442;" horiz-adv-x="1193" d="M60 973v147h1073v-147h-446v-973h-181v973h-446z" />
<glyph unicode="&#x443;" horiz-adv-x="1212" d="M61 1120h195l350 -876l350 876h195l-492 -1224q-78 -200 -152 -261t-198 -61h-147v154h108q76 0 118 36t93 170l33 84z" />
<glyph unicode="&#x444;" horiz-adv-x="1751" d="M112 555q0 275 116.5 433.5t283.5 158.5q83 0 148.5 -38t122.5 -132v516h185v-516q57 94 122.5 132t148.5 38q167 0 283.5 -158.5t116.5 -433.5t-116.5 -429.5t-283.5 -154.5q-83 0 -148.5 39t-122.5 133v-569h-185v569q-57 -94 -122.5 -133t-148.5 -39 q-167 0 -283.5 154.5t-116.5 429.5zM303 559q0 -235 72.5 -334.5t195.5 -99.5q98 0 212 168v532q-114 168 -212 168q-123 0 -195.5 -99.5t-72.5 -334.5zM968 293q114 -168 212 -168q123 0 195.5 99.5t72.5 334.5t-72.5 334.5t-195.5 99.5q-98 0 -212 -168v-532z" />
<glyph unicode="&#x445;" horiz-adv-x="1212" d="M59 0l435 586l-398 534h217l297 -399l297 399h217l-405 -545l426 -575h-217l-326 440l-326 -440h-217z" />
<glyph unicode="&#x446;" horiz-adv-x="1394" d="M186 0v1120h185v-973h597v973h185v-973h147v-430h-147v283h-967z" />
<glyph unicode="&#x447;" horiz-adv-x="1210" d="M150 836v284h184v-267q0 -117 52 -176q53 -59 157 -59h297v502h184v-1120h-184v471h-343q-153 0 -255 95q-92 86 -92 270z" />
<glyph unicode="&#x448;" horiz-adv-x="1874" d="M186 0v1120h185v-973h473v973h185v-973h474v973h185v-1120h-1502z" />
<glyph unicode="&#x449;" horiz-adv-x="1929" d="M186 0v1120h185v-973h473v973h185v-973h474v973h185v-973h147v-430h-147v283h-1502z" />
<glyph unicode="&#x44a;" horiz-adv-x="1447" d="M62 973v147h548v-457h271q214 0 329.5 -81.5t115.5 -249.5t-115.5 -250t-329.5 -82h-456v973h-363zM610 147h263q126 0 191.5 47.5t65.5 137.5t-65.5 137t-191.5 47h-263v-369z" />
<glyph unicode="&#x44b;" horiz-adv-x="1617" d="M1251 0v1120h184v-1120h-184zM1343 1147zM186 0v1120h185v-457h270q214 0 329.5 -81.5t115.5 -249.5t-115.5 -250t-329.5 -82h-455zM371 147h262q126 0 191.5 47.5t65.5 137.5t-65.5 137t-191.5 47h-262v-369z" />
<glyph unicode="&#x44c;" horiz-adv-x="1207" d="M186 0v1120h185v-457h270q214 0 329.5 -81.5t115.5 -249.5t-115.5 -250t-329.5 -82h-455zM371 147h262q126 0 191.5 47.5t65.5 137.5t-65.5 137t-191.5 47h-262v-369z" />
<glyph unicode="&#x44d;" horiz-adv-x="1124" d="M113 43v170q158 -86 315 -86q147 0 252 85.5t124 303.5h-568v147h562q-12 105 -91.5 216.5t-278.5 111.5q-154 0 -315 -86v172q157 70 323 70q262 0 412.5 -158.5t150.5 -429.5q0 -270 -146.5 -429t-403.5 -159q-189 0 -336 72z" />
<glyph unicode="&#x44e;" horiz-adv-x="1724" d="M193 0v1120h184v-447h213q19 190 143.5 332t364.5 142t377 -156t137 -432q0 -275 -137 -431.5t-377 -156.5q-241 0 -372.5 151t-140.5 399h-208v-521h-184zM778 559q0 -201 85.5 -316.5t234.5 -115.5q147 0 233 116t86 316q0 199 -86 315.5t-233 116.5 q-148 0 -234 -115.5t-86 -316.5z" />
<glyph unicode="&#x44f;" horiz-adv-x="1232" d="M116 0l342 491q-116 26 -193 94.5t-77 211.5q0 162 107.5 242.5t324.5 80.5h438v-1120h-185v473h-229l-330 -473h-198zM378 797q0 -83 64 -130t183 -47h248v353h-248q-119 0 -183 -46t-64 -130z" />
<glyph unicode="&#x450;" horiz-adv-x="1260" d="M113 549q0 275 148.5 436.5t400.5 161.5q226 0 357.5 -145.5t131.5 -395.5v-90h-846q12 -190 114.5 -289.5t285.5 -99.5q106 0 205.5 26t197.5 78v-174q-99 -42 -203 -64t-211 -22q-268 0 -424.5 156t-156.5 422zM311 659l656 1q-2 151 -84.5 241t-218.5 90 q-154 0 -246.5 -87t-106.5 -245zM260 1643h197l282 -374h-153z" />
<glyph unicode="&#x451;" horiz-adv-x="1260" d="M113 549q0 275 148.5 436.5t400.5 161.5q226 0 357.5 -145.5t131.5 -395.5v-90h-846q12 -190 114.5 -289.5t285.5 -99.5q106 0 205.5 26t197.5 78v-174q-99 -42 -203 -64t-211 -22q-268 0 -424.5 156t-156.5 422zM311 659l656 1q-2 151 -84.5 241t-218.5 90 q-154 0 -246.5 -87t-106.5 -245zM365 1350v202h203v-202h-203zM756 1350v202h203v-202h-203z" />
<glyph unicode="&#x452;" horiz-adv-x="1280" d="M47 977v143h176v436h185v-436h541v-143h-541v-403q66 101 155 151t207 50q182 0 290 -116.5t108 -394.5q0 -226 -171.5 -437.5t-386.5 -252.5v140q122 22 244.5 173t122.5 361q0 208 -62 287.5t-186 79.5q-154 0 -237.5 -98t-83.5 -256v-261h-185v977h-176z" />
<glyph unicode="&#x453;" horiz-adv-x="1076" d="M186 0v1120h790v-147h-605v-973h-185zM505 1269l280 376h199l-326 -376h-153z" />
<glyph unicode="&#x454;" horiz-adv-x="1124" d="M113 559q0 271 150.5 429.5t412.5 158.5q166 0 323 -70v-172q-161 86 -315 86q-199 0 -278.5 -111.5t-91.5 -216.5h562v-147h-568q19 -218 124 -303.5t252 -85.5q157 0 315 86v-170q-147 -72 -336 -72q-257 0 -403.5 159t-146.5 429z" />
<glyph unicode="&#x455;" horiz-adv-x="1067" d="M111 41v190q102 -53 201 -79.5t196 -26.5q130 0 200 44.5t70 125.5q0 75 -50.5 115t-221.5 77l-64 15q-171 36 -247 110.5t-76 204.5q0 158 112 244t318 86q102 0 192 -15t166 -45v-174q-78 40 -162 60t-174 20q-137 0 -205.5 -42t-68.5 -126q0 -64 49 -100.5t197 -69.5 l63 -14q196 -42 278.5 -118.5t82.5 -213.5q0 -156 -123.5 -247t-339.5 -91q-90 0 -187.5 17.5t-205.5 52.5z" />
<glyph unicode="&#x456;" horiz-adv-x="569" d="M193 0v1120h184v-1120h-184zM193 1323v233h184v-233h-184z" />
<glyph unicode="&#x457;" horiz-adv-x="569" d="M193 0v1120h184v-1120h-184zM285 1147zM-12 1350v202h203v-202h-203zM379 1350v202h203v-202h-203z" />
<glyph unicode="&#x458;" horiz-adv-x="569" d="M-37 -270h49q105 0 143 48.5t38 201.5v1140h184v-1140q0 -214 -81.5 -310t-262.5 -96h-70v156zM193 1323v233h184v-233h-184z" />
<glyph unicode="&#x459;" horiz-adv-x="1848" d="M76 0v153q182 28 238 154q68 177 68 630v183h728v-457h171q214 0 330 -81.5t116 -249.5t-115.5 -250t-329.5 -82h-357v973h-358v-111q0 -432 -88 -626q-94 -207 -403 -236zM1110 147h163q126 0 192 47.5t66 137.5t-66 137t-192 47h-163v-369z" />
<glyph unicode="&#x45a;" horiz-adv-x="1840" d="M186 0v1120h185v-457h546v457h185v-457h171q214 0 330 -81.5t116 -249.5t-115.5 -250t-329.5 -82h-357v516h-546v-516h-185zM1102 147h163q126 0 192 47.5t66 137.5t-66 137t-192 47h-163v-369z" />
<glyph unicode="&#x45b;" horiz-adv-x="1335" d="M47 977v143h176v436h185v-436h541v-143h-541v-403q66 101 155.5 151t206.5 50q189 0 290 -117t101 -354v-304h-184v298q0 159 -62 238t-186 79q-152 0 -236.5 -96.5t-84.5 -257.5v-261h-185v977h-176z" />
<glyph unicode="&#x45c;" horiz-adv-x="1237" d="M186 0v1120h183v-526l519 526h226l-428 -433l483 -687h-206l-397 565l-197 -200v-365h-183zM482 1269l280 376h199l-326 -376h-153z" />
<glyph unicode="&#x45d;" horiz-adv-x="1331" d="M186 0v1120h183v-897l539 897h237v-1120h-183v899l-540 -899h-236zM263 1643h197l282 -374h-153z" />
<glyph unicode="&#x45e;" horiz-adv-x="1212" d="M61 1120h195l350 -876l350 876h195l-492 -1224q-78 -200 -152 -261t-198 -61h-147v154h108q76 0 118 36t93 170l33 84zM293 1556h118q11 -75 59.5 -112.5t135.5 -37.5q86 0 134 37t61 113h118q-10 -143 -89 -215t-224 -72t-224 72t-89 215z" />
<glyph unicode="&#x45f;" horiz-adv-x="1339" d="M186 0v1120h185v-973h597v973h185v-1120h-410v-283h-147v283h-410z" />
<glyph unicode="&#x460;" horiz-adv-x="1912" d="M115 736q0 201 100 471q59 159 152 286h249q-84 -70 -219 -391q-67 -159 -67 -342q0 -307 72 -414q73 -109 198 -109q114 0 186 105q71 104 71 302v241h199v-241q0 -198 70 -302q70 -105 186 -105q134 0 199 109q71 119 71 414q0 183 -67 342q-135 321 -219 391h250 q95 -130 151 -286q100 -281 100 -471q0 -410 -123 -588q-123 -177 -332 -177q-146 0 -247 94q-100 94 -139 267q-39 -173 -139 -267q-101 -94 -247 -94q-211 0 -332 177q-123 180 -123 588z" />
<glyph unicode="&#x461;" horiz-adv-x="1715" d="M135 565q0 235 155 555h198q-143 -320 -143 -560q0 -433 222 -433q203 0 203 538h170q0 -538 203 -538q222 0 222 433q0 240 -143 560h198q155 -320 155 -555q0 -594 -415 -594q-272 0 -305 299q-41 -299 -305 -299q-415 0 -415 594z" />
<glyph unicode="&#x462;" horiz-adv-x="1578" d="M30 1105v164h368v224h202v-224h369v-164h-369v-226h334q251 0 387 -109t136 -331q0 -221 -136 -330t-387 -109h-536v1105h-368zM600 166h324q163 0 241 68q79 67 79 205q0 139 -79 207q-78 67 -241 67h-324v-547z" />
<glyph unicode="&#x463;" horiz-adv-x="1376" d="M30 973v147h325v436h185v-436h425v-147h-425v-310h270q214 0 329.5 -81.5t115.5 -249.5t-115.5 -250t-329.5 -82h-455v973h-325zM540 147h262q126 0 191.5 47.5t65.5 137.5t-65.5 137t-191.5 47h-262v-369z" />
<glyph unicode="&#x464;" horiz-adv-x="1930" d="M211 0v1493h202v-612h210q30 264 187 431q195 208 534 208q134 0 252 -36q119 -35 223 -106v-213q-102 95 -217 142q-116 47 -246 47q-256 0 -392 -156q-103 -119 -128 -317h690v-170h-698q7 -269 136 -417q137 -157 392 -157q130 0 246 47q115 47 217 142v-211 q-106 -72 -225 -108q-118 -36 -250 -36q-339 0 -534 207q-186 198 -195 533h-202v-711h-202z" />
<glyph unicode="&#x465;" horiz-adv-x="1534" d="M193 0v1120h184v-461h152q23 202 145 330q151 158 412 158q166 0 323 -70v-172q-161 86 -315 86q-230 0 -322 -180q-34 -65 -46 -152h460v-143h-468q13 -244 171 -338q85 -51 205 -51q157 0 315 86v-170q-147 -72 -335 -72q-269 0 -417 173q-123 144 -133 372h-147v-516 h-184z" />
<glyph unicode="&#x466;" horiz-adv-x="1801" d="M16 0l770 1493h229l769 -1493h-225l-278 539h-279v-539h-202v539h-281l-278 -539h-225zM608 712h584l-292 567z" />
<glyph unicode="&#x467;" horiz-adv-x="1604" d="M51 0l654 1120h195l653 -1120h-195l-236 405h-227v-405h-184v405h-229l-236 -405h-195zM559 537h486l-243 417z" />
<glyph unicode="&#x468;" horiz-adv-x="2375" d="M201 0v1493h202v-612h607l316 612h229l769 -1493h-225l-278 539h-279v-539h-202v539h-281l-278 -539h-225l367 711h-520v-711h-202zM1148 712h584l-292 567z" />
<glyph unicode="&#x469;" horiz-adv-x="2051" d="M193 0v1120h184v-489h489l286 489h195l653 -1120h-195l-236 405h-227v-405h-184v405h-229l-236 -405h-195l284 487h-405v-487h-184zM1006 537h486l-243 417z" />
<glyph unicode="&#x46a;" horiz-adv-x="1612" d="M115 0q0 354 189 564q120 134 290 183l-431 746h1298l-432 -749q164 -50 280 -180q188 -210 188 -564h-213q0 286 -128 447q-96 122 -249 154v-601h-202v601q-147 -28 -247 -154q-130 -164 -130 -447h-213zM493 1323l319 -552l318 552h-637z" />
<glyph unicode="&#x46b;" horiz-adv-x="1253" d="M107 1120h1040l-325 -564q107 -38 182 -124q137 -156 137 -432h-195q0 199 -86 315q-58 79 -144 105v-420h-184v418q-83 -26 -139 -101q-86 -116 -86 -317h-194q0 276 137 432q74 85 182 124zM418 950l209 -362l210 362h-419z" />
<glyph unicode="&#x46c;" horiz-adv-x="2103" d="M201 0v1493h202v-612h604l-353 612h1298l-432 -749q164 -50 280 -180q188 -210 188 -564h-213q0 286 -128 447q-96 122 -249 154v-601h-202v601q-147 -28 -247 -154q-130 -164 -130 -447h-213q0 354 189 564q85 95 195 147h-587v-711h-202zM984 1323l319 -552l318 552 h-637z" />
<glyph unicode="&#x46d;" horiz-adv-x="1688" d="M193 0v1120h184v-489h446l-281 489h1040l-325 -564q107 -38 182 -124q137 -156 137 -432h-195q0 199 -86 315q-58 79 -144 105v-420h-184v418q-83 -26 -139 -101q-86 -116 -86 -317h-194q0 276 137 432q27 31 58 55h-366v-487h-184zM853 950l209 -362l210 362h-419z" />
<glyph unicode="&#x46e;" d="M115 -127q0 122 53 203q63 94 180 94h351q104 0 174 88q65 82 65 188q0 189 -187 244q-88 25 -337 25v166q18 0 61 -1t66 -1q163 0 245 38q117 54 117 195q0 238 -315 238q-165 0 -387 -74v180q160 45 289 58l-159 387h115l160 -381l106 222q30 64 45 88q23 39 46 57 q35 27 101 27q26 0 61 -10v-87l-39 5q-11 2 -26 2q-34 0 -84 -111l-90 -202q166 -24 264 -111q114 -100 114 -267q0 -259 -273 -328q141 -30 223 -122q85 -96 85 -237q0 -207 -115 -310q-152 -136 -350 -136q-68 0 -161 4t-128 4q-96 0 -96 -130q0 -114 220 -114 q65 0 193 12q116 11 148 9q98 -7 182 -44v-167q-68 39 -184 39q-59 0 -185 -13.5t-186 -13.5q-125 0 -199 44q-163 97 -163 243z" />
<glyph unicode="&#x46f;" horiz-adv-x="1107" d="M91 -115q0 268 196 268h300q90 0 145 48t55 137q0 76 -78 132q-60 43 -174 51h-183v152q11 0 44 -1h53q309 0 309 160q0 81 -94 123q-72 33 -164 33q-145 0 -329 -55v167q126 31 228 42l-159 387h115l160 -381l106 222q47 99 68 122q43 50 124 50q26 0 61 -10v-87 q-50 7 -65 7q-34 0 -84 -111l-91 -202q304 -47 304 -289q0 -196 -232 -246q111 -22 182 -86q80 -73 80 -180q0 -158 -118 -252q-109 -86 -271 -86q-68 0 -152 4t-109 4q-80 0 -80 -129q0 -97 98 -124q33 -9 72 -9q44 0 133 18t134 18q99 0 187 -39v-139q-59 34 -157 34 q-49 0 -154 -11.5t-155 -11.5q-105 0 -168 37q-137 82 -137 233z" />
<glyph unicode="&#x470;" horiz-adv-x="1754" d="M16 1430h195l350 -940h125v1003h202v-1005h125l232 626q78 212 182 292q66 51 195 51q51 0 107 -16v-141l-58 7q-25 3 -57 3q-37 0 -66 -25q-66 -56 -126 -217l-284 -758h-250v-310h-202v310h-250z" />
<glyph unicode="&#x471;" horiz-adv-x="1795" d="M50 1120h195l350 -940h125v1386h183v-1388h125l232 626q78 212 182 292q66 51 195 51q51 0 107 -16v-141l-58 7q-25 3 -57 3q-37 0 -66 -25q-66 -56 -126 -217l-284 -758h-250v-426h-183v426h-250z" />
<glyph unicode="&#x472;" horiz-adv-x="1612" d="M115 745q0 354 188.5 564.5t502.5 210.5q315 0 503 -210.5t188 -563.5q0 -354 -188 -564.5t-503 -210.5q-314 0 -502.5 210t-188.5 564zM328 710q8 -257 133.5 -416t345.5 -159t344 158.5t132 416.5h-955zM338 877h940q-14 195 -141 337t-329 142t-330 -142t-140 -337z " />
<glyph unicode="&#x473;" horiz-adv-x="1253" d="M113 559q0 276 136.5 432t377.5 156q240 0 377 -156t137 -432q0 -275 -137 -431.5t-377 -156.5q-241 0 -377.5 156.5t-136.5 431.5zM309 507q0 -148 84 -264t233 -116t233 116t84 264h-634zM311 671h628q-18 127 -92.5 223.5t-221.5 96.5t-221.5 -96.5t-92.5 -223.5z" />
<glyph unicode="&#x474;" horiz-adv-x="1600" d="M16 1493h211l473 -1257l312 829q115 306 202 380.5t235 74.5q63 0 126 -21v-187l-68 10q-22 4 -47 4q-73 0 -107 -34q-71 -67 -155 -288l-383 -1004h-229z" />
<glyph unicode="&#x475;" horiz-adv-x="1362" d="M50 1120h195l350 -940l232 624q80 213 182 292q66 51 195 51q51 0 107 -16v-141l-58 7q-19 3 -57 3q-37 0 -66 -25q-65 -55 -126 -217l-284 -758h-250z" />
<glyph unicode="&#x476;" horiz-adv-x="1600" d="M306 1904h185l196 -264h-153zM641 1904h185l196 -264h-153zM16 1493h211l473 -1257l312 829q115 306 202 380.5t235 74.5q63 0 126 -21v-187l-68 10q-22 4 -47 4q-73 0 -107 -34q-71 -67 -155 -288l-383 -1004h-229z" />
<glyph unicode="&#x477;" horiz-adv-x="1362" d="M287 1638h178l205 -376h-135zM629 1638h170l190 -376h-137zM50 1120h195l350 -940l232 624q80 213 182 292q66 51 195 51q51 0 107 -16v-141l-58 7q-19 3 -57 3q-37 0 -66 -25q-65 -55 -126 -217l-284 -758h-250z" />
<glyph unicode="&#x478;" horiz-adv-x="2032" d="M115 745q0 290 96 499q127 276 383 276t382 -275q95 -209 95 -499q0 -291 -95 -499q-126 -276 -382 -276t-383 275q-96 209 -96 499zM328 745q0 -260 29 -376q57 -234 237 -234t237 234q27 114 27 377q0 262 -28 376q-56 234 -236 234t-238 -234q-28 -116 -28 -377z M982 -272h108q76 0 118 36q38 33 93 170l124 311l-350 875h195l253 -630l253 630h195l-492 -1224q-82 -203 -152 -261q-74 -61 -198 -61h-147v154z" />
<glyph unicode="&#x479;" horiz-adv-x="1852" d="M113 559q0 222 96 388q116 200 322 200q204 0 319 -201q95 -167 95 -387t-95 -387q-115 -201 -319 -201q-206 0 -322 200q-96 166 -96 388zM307 559q0 -432 224 -432q219 0 219 432t-219 432q-224 0 -224 -432zM802 -272h108q76 0 118 36q38 33 93 170l124 311l-350 875 h195l253 -630l253 630h195l-492 -1224q-82 -203 -152 -261q-74 -61 -198 -61h-147v154z" />
<glyph unicode="&#x47a;" horiz-adv-x="1952" d="M115 745q0 314 189 525q152 170 503 170h45q11 21 27 36q22 21 49 33q26 11 57 11t57 -11q31 -14 49 -33q16 -17 27 -36h29q350 0 502 -170q188 -211 188 -525q0 -313 -188 -523q-152 -171 -502 -171h-29q-10 -19 -27 -36q-22 -21 -49 -33q-26 -11 -57 -11t-57 11 q-31 14 -49 33q-16 17 -26 36h-46q-351 0 -503 170q-189 210 -189 524zM328 745q0 -242 130 -406q114 -145 349 -145h46q10 18 26 34q22 21 49 33q26 11 57 11t57 -11q27 -12 49 -33q16 -16 26 -34h30q235 0 349 145q128 164 128 406q0 243 -128 407q-114 145 -349 145h-30 q-11 -20 -26 -34q-22 -21 -49 -33q-26 -11 -57 -11t-57 11q-27 12 -49 33q-16 16 -26 34h-46q-235 0 -349 -145q-130 -164 -130 -407z" />
<glyph unicode="&#x47b;" horiz-adv-x="1553" d="M113 559q0 233 137 395q116 136 377 136h46q7 10 16 20q13 15 40 27q22 10 48 10t48 -10q27 -12 40 -27q9 -10 16 -20h46q258 0 377 -136q137 -156 137 -395q0 -232 -137 -394q-116 -137 -377 -137h-46q-7 -10 -16 -20q-13 -15 -40 -27q-22 -10 -48 -10t-48 10 q-27 12 -40 27q-9 10 -16 20h-46q-257 0 -377 137q-137 156 -137 394zM307 559q0 -188 85 -300q72 -95 235 -95h45q7 11 17 21q18 17 40 27t48 10t48 -10q27 -12 40 -27q9 -10 17 -21h45q161 0 233 96q86 116 86 299q0 167 -86 298q-63 97 -233 97h-45q-7 -11 -17 -21 q-18 -17 -40 -27t-48 -10t-48 10t-40 27q-10 10 -17 21h-45q-163 0 -234 -95q-86 -116 -86 -300z" />
<glyph unicode="&#x47c;" horiz-adv-x="2416" d="M118 509q0 198 67 424q71 236 182 388h249q-126 -107 -217 -350q-85 -226 -85 -408q0 -326 256 -326q138 0 231 54q76 51 151 102q102 54 259 54q155 0 255 -54q75 -51 149 -102q93 -54 231 -54q256 0 256 326q0 182 -85 408q-91 243 -217 350h250q111 -152 181 -388 q67 -226 67 -423q0 -242 -102 -381q-116 -158 -350 -158q-91 0 -201 68q-97 64 -193 128q-122 68 -242 68q-122 0 -245 -68l-194 -128q-110 -68 -201 -68q-234 0 -350 157q-102 139 -102 381zM1098 1218v103q134 -3 134 154h-133v158h241v-148q0 -267 -242 -267zM823 1626 v134q139 39 213 81q119 67 244 67q292 0 313 -292h-118q-23 155 -185 155q-93 0 -184 -47q-147 -75 -283 -98z" />
<glyph unicode="&#x47d;" horiz-adv-x="2105" d="M152 404q0 276 138 561h198q-146 -327 -146 -577q0 -261 208 -261q62 0 135 56q120 91 141 103q100 55 226 55t226 -55q20 -12 141 -103q73 -56 136 -56q208 0 208 263q0 248 -146 575h198q138 -285 138 -562q0 -432 -398 -432q-84 0 -233.5 113t-269.5 113t-270 -113 t-232 -113q-398 0 -398 433zM943 862v103q134 -3 134 154h-133v158h241v-148q0 -267 -242 -267zM668 1270v134q139 39 213 81q119 67 244 67q292 0 313 -292h-118q-23 155 -185 155q-93 0 -184 -47q-147 -75 -283 -98z" />
<glyph unicode="&#x47e;" horiz-adv-x="1912" d="M506 1843h900l-100 -200h-50l-50 100h-175l-50 -100h-50l-50 100h-175l-50 -100h-50zM115 736q0 201 100 471q59 159 152 286h249q-84 -70 -219 -391q-67 -159 -67 -342q0 -307 72 -414q73 -109 198 -109q114 0 186 105q71 104 71 302v241h199v-241q0 -198 70 -302 q70 -105 186 -105q134 0 199 109q71 119 71 414q0 183 -67 342q-135 321 -219 391h250q95 -130 151 -286q100 -281 100 -471q0 -410 -123 -588q-123 -177 -332 -177q-146 0 -247 94q-100 94 -139 267q-39 -173 -139 -267q-101 -94 -247 -94q-211 0 -332 177 q-123 180 -123 588z" />
<glyph unicode="&#x47f;" horiz-adv-x="1715" d="M407 1504h900l-100 -200h-50l-50 100h-175l-50 -100h-50l-50 100h-175l-50 -100h-50zM135 565q0 235 155 555h198q-143 -320 -143 -560q0 -433 222 -433q203 0 203 538h170q0 -538 203 -538q222 0 222 433q0 240 -143 560h198q155 -320 155 -555q0 -594 -415 -594 q-272 0 -305 299q-41 -299 -305 -299q-415 0 -415 594z" />
<glyph unicode="&#x480;" horiz-adv-x="1430" d="M115 745q0 360 195 567q195 208 534 208q134 0 252 -36q119 -35 223 -106v-213q-102 95 -217 142q-116 47 -246 47q-256 0 -392 -156q-136 -157 -136 -453q0 -301 136 -431q152 -148 392 -148h363v-592h-201v426h-174q-347 0 -534 198q-195 208 -195 547z" />
<glyph unicode="&#x481;" horiz-adv-x="1126" d="M113 559q0 274 151 431q150 157 412 157q85 0 166 -17q81 -18 157 -53v-172q-78 43 -157 65q-78 21 -158 21q-179 0 -278 -113q-99 -114 -99 -319q0 -185 99 -299q99 -113 278 -113h245v-573h-201v426h-64q-261 0 -402 150q-149 159 -149 409z" />
<glyph unicode="&#x482;" horiz-adv-x="1029" d="M59 350l100 174l216 -125l105 181l-216 125l100 174l216 -125l105 181l174 -100l-105 -181l216 -125l-100 -174l-216 125l-105 -181l216 -125l-100 -174l-216 125l-125 -216l-174 100l125 216z" />
<glyph unicode="&#x483;" horiz-adv-x="0" d="M-1062 1383q0 28 10 53q11 27 30 45q20 19 45 30q24 10 52 10h461q0 27 10 52q11 27 30 45q20 19 45 30q24 10 52 10t52 -10q25 -11 45 -30q20 -21 30 -45q10 -25 10 -53q0 -27 -10 -52q-11 -27 -30 -45q-20 -19 -45 -30q-24 -10 -52 -10h-461q0 -27 -10 -52 q-11 -27 -30 -45q-20 -19 -45 -30q-24 -10 -52 -10t-52 10q-25 11 -45 30q-19 18 -30 45q-10 25 -10 52z" />
<glyph unicode="&#x484;" horiz-adv-x="0" d="M-761 1331v134q139 39 213 81q119 67 244 67q292 0 313 -292h-118q-23 155 -185 155q-93 0 -184 -47q-147 -75 -283 -98z" />
<glyph unicode="&#x485;" horiz-adv-x="0" d="M-589 1485v148h241v-158h-133q0 -157 134 -154v-103q-242 0 -242 267z" />
<glyph unicode="&#x486;" horiz-adv-x="0" d="M-589 1218v103q134 -3 134 154h-133v158h241v-148q0 -267 -242 -267z" />
<glyph unicode="&#x487;" horiz-adv-x="0" d="M-1590 1281h173q152 207 373 195q102 -7 397 -120q239 -92 656 -115v134q-288 -1 -594 115q-325 123 -439 123q-431 0 -566 -332z" />
<glyph unicode="&#x488;" horiz-adv-x="856" d="M-2090 617q10 143 89 215t224 72t224 -72t89 -215h-118q-11 75 -59.5 112.5t-135.5 37.5q-86 0 -134 -37t-61 -113h-118zM-1753 -79q10 143 89 215t224 72t224 -72t89 -215h-118q-11 75 -59.5 112.5t-135.5 37.5q-86 0 -134 -37t-61 -113h-118zM-1753 1313q10 143 89 215 t224 72t224 -72t89 -215h-118q-11 75 -59.5 112.5t-135.5 37.5q-86 0 -134 -37t-61 -113h-118zM-939 -368q10 143 89 215t224 72t224 -72t89 -215h-118q-11 75 -59.5 112.5t-135.5 37.5q-86 0 -134 -37t-61 -113h-118zM-939 1601q10 143 89 215t224 72t224 -72t89 -215h-118 q-11 75 -59.5 112.5t-135.5 37.5q-86 0 -134 -37t-61 -113h-118zM-125 -79q10 143 89 215t224 72t224 -72t89 -215h-118q-11 75 -59.5 112.5t-135.5 37.5q-86 0 -134 -37t-61 -113h-118zM-125 1313q10 143 89 215t224 72t224 -72t89 -215h-118q-11 75 -59.5 112.5 t-135.5 37.5q-86 0 -134 -37t-61 -113h-118zM212 617q10 143 89 215t224 72t224 -72t89 -215h-118q-11 75 -59.5 112.5t-135.5 37.5q-86 0 -134 -37t-61 -113h-118z" />
<glyph unicode="&#x489;" horiz-adv-x="856" d="M-1960 818v130l320 -82h172v-212h-172zM-1702 -50l284 168l122 122l149 -150l-121 -121l-343 -111zM-1529 1744l92 92l169 -285l121 -121l-150 -150l-121 121zM-814 -573l82 320v172h211v-172l-164 -320h-129zM-732 1601v172l164 320h129l-82 -320v-172h-211zM-107 90 l150 150l121 -121l111 -343l-92 -92l-169 285zM-107 1429l122 122l342 110l92 -91l-285 -169l-121 -121zM214 654v212h172l320 -164v-130l-320 82h-172z" />
<glyph unicode="&#x48a;" horiz-adv-x="1582" d="M201 0v1493h196v-1249l662 1249h272v-1323h201v-170l-366 -426h-134l299 426h-196v1249l-662 -1249h-272zM444 1901h118q13 -54 62.5 -82.5t132.5 -28.5q82 0 130.5 27.5t64.5 83.5h118q-10 -119 -90 -180.5t-223 -61.5q-144 0 -223.5 61t-89.5 181z" />
<glyph unicode="&#x48b;" horiz-adv-x="1386" d="M193 0v1120h183v-897l539 897h237v-967h184v-153l-290 -426h-123l229 426h-183v899l-540 -899h-236zM359 1556h118q11 -75 59.5 -112.5t135.5 -37.5q86 0 134 37t61 113h118q-10 -143 -89 -215t-224 -72t-224 72t-89 215z" />
<glyph unicode="&#x48c;" horiz-adv-x="1405" d="M33 1105v164h168v224h202v-224h168v-164h-168v-226h334q251 0 387 -109t136 -331q0 -221 -136 -330t-387 -109h-536v1105h-168zM403 166h324q163 0 241 68q79 67 79 205q0 139 -79 207q-78 67 -241 67h-324v-547z" />
<glyph unicode="&#x48d;" horiz-adv-x="1207" d="M38 977v143h155v318h184v-318h157v-143h-157v-310h271q208 0 329 -85q116 -82 116 -250t-116 -250q-115 -82 -329 -82h-455v977h-155zM377 153h263q129 0 195 46q62 43 62 133q0 94 -62 136q-67 46 -195 46h-263v-361z" />
<glyph unicode="&#x48e;" horiz-adv-x="1235" d="M201 0v1493h456q251 0 379 -113q129 -114 129 -333q0 -146 -56 -244l140 -117l-106 -126l-146 123q-126 -83 -340 -83h-254v-600h-202zM403 766h254q114 0 185 47l-215 180l106 126l206 -173q12 44 13 101q0 134 -77 207t-218 73h-254v-561z" />
<glyph unicode="&#x48f;" horiz-adv-x="1300" d="M186 -426v1546h185v-170q58 100 147 148q88 49 211 49q204 0 331 -162q128 -162 128 -426t-128 -426q-12 -15 -23 -28l147 -174l-111 -93l-149 179q-87 -46 -195 -46q-123 0 -211 48q-89 49 -147 149v-594h-185zM371 559q0 -203 83 -319q84 -115 230 -115q70 0 126 27 l-140 167l110 93l138 -165q79 115 79 312q0 203 -83 319q-84 115 -230 115t-230 -116q-83 -115 -83 -318z" />
<glyph unicode="&#x490;" horiz-adv-x="1249" d="M201 0v1493h759v306h170v-476h-727v-1323h-202z" />
<glyph unicode="&#x491;" horiz-adv-x="1076" d="M186 0v1120h643v314h147v-461h-606v-973h-184z" />
<glyph unicode="&#x492;" horiz-adv-x="1382" d="M71 660v170h263v663h929v-170h-727v-493h547v-170h-547v-660h-202v660h-263z" />
<glyph unicode="&#x493;" horiz-adv-x="1209" d="M56 500v170h263v450h790v-157h-606v-293h416v-170h-416v-500h-184v500h-263z" />
<glyph unicode="&#x494;" horiz-adv-x="1278" d="M201 0v1493h929v-170h-727v-442h417q186 0 299 -119q109 -114 109 -352v-306q0 -270 -102 -392t-330 -122h-76v170h62q134 0 190 75q55 75 55 269v290q0 159 -62 238t-186 79h-376v-711h-202z" />
<glyph unicode="&#x495;" horiz-adv-x="1085" d="M186 0v1120h790v-170h-606v-319h250q263 0 333 -71q82 -81 82 -310v-270q0 -214 -82 -310q-81 -96 -262 -96h-193v156h172q110 0 143 48q38 55 38 202v264q0 170 -38 202q-49 41 -183 41h-260v-487h-184z" />
<glyph unicode="&#x496;" horiz-adv-x="2206" d="M40 0l580 904l-545 589h245l682 -738v738h202v-738l682 738h245l-545 -589l471 -734h136v-491h-197v321h-41l-493 769l-258 -279v-490h-202v490l-258 279l-493 -769h-211z" />
<glyph unicode="&#x497;" horiz-adv-x="1845" d="M70 0l460 689l-402 431h214l489 -526v526h183v-526l489 526h214l-402 -431l358 -536h122v-436h-184v283h-33l-377 566l-187 -201v-365h-183v365l-187 201l-377 -566h-197z" />
<glyph unicode="&#x498;" horiz-adv-x="1313" d="M348 -240q34 -17 71 -24.5t84 -7.5q59 0 89 24t30 70q0 30 -21.5 73.5t-66.5 104.5h119q55 -62 82 -114.5t27 -100.5q0 -89 -60 -134.5t-178 -45.5q-46 0 -89.5 6t-86.5 18v131zM135 65v208q153 -89 237.5 -110.5t208.5 -21.5q188 0 292 72t104 221q0 132 -92.5 206.5 t-287.5 74.5h-204v166h212q179 0 258 59.5t79 171.5q0 115 -81.5 176.5t-279.5 61.5q-134 0 -180 -12t-251 -89v197q113 40 231 57t204 17q246 0 402 -104.5t156 -282.5q0 -124 -71 -209.5t-202 -118.5q145 -31 226.5 -129t81.5 -242q0 -230 -177.5 -346.5t-415.5 -116.5 q-122 0 -264 33t-186 61z" />
<glyph unicode="&#x499;" horiz-adv-x="1089" d="M241 -240q34 -17 71 -24.5t84 -7.5q59 0 89 24t30 70q0 30 -21.5 73.5t-66.5 104.5h119q55 -62 82 -114.5t27 -100.5q0 -89 -60 -134.5t-178 -45.5q-46 0 -89.5 6t-86.5 18v131zM133 27v171q71 -37 156 -55.5t178 -18.5q151 0 235.5 56t84.5 146q0 88 -75 141.5 t-212 53.5h-148v152h155q116 0 183.5 44.5t67.5 114.5q0 64 -69.5 110t-188.5 46q-71 0 -151.5 -13t-177.5 -42v167q98 24 183 36t161 12q196 0 309.5 -78.5t113.5 -219.5q0 -93 -60 -157.5t-172 -88.5q124 -24 193 -97t69 -181q0 -173 -129 -264t-367 -91q-80 0 -164.5 14 t-174.5 42z" />
<glyph unicode="&#x49a;" horiz-adv-x="1454" d="M201 0v1493h202v-738l722 738h259l-577 -590l493 -733h160v-491h-197v321h-69l-518 769l-273 -279v-490h-202z" />
<glyph unicode="&#x49b;" horiz-adv-x="1237" d="M186 0v1120h183v-526l519 526h226l-428 -433l375 -534h142v-436h-184v283h-56l-397 565l-197 -200v-365h-183z" />
<glyph unicode="&#x49c;" horiz-adv-x="1454" d="M201 0v1493h202v-738l173 177v340h100v-238l449 459h259l-577 -590l607 -903h-220l-518 769v-475h-100v373l-173 -177v-490h-202z" />
<glyph unicode="&#x49d;" horiz-adv-x="1237" d="M186 0v1120h183v-526l96 97v221h101v-118l322 326h226l-428 -433l483 -687h-206l-397 565v-315h-101v212l-96 -97v-365h-183z" />
<glyph unicode="&#x49e;" horiz-adv-x="1454" d="M33 1125v144h168v224h202v-224h168v-144h-168v-370l722 738h259l-577 -590l607 -903h-220l-518 769l-273 -279v-490h-202v1125h-168z" />
<glyph unicode="&#x49f;" horiz-adv-x="1237" d="M61 1309v125h125v122h183v-122h356v-125h-356v-715l519 526h226l-428 -433l483 -687h-206l-397 565l-197 -200v-365h-183v1309h-125z" />
<glyph unicode="&#x4a0;" horiz-adv-x="1754" d="M50 1323v170h653v-738l722 738h259l-577 -590l607 -903h-220l-518 769l-273 -279v-490h-202v1323h-451z" />
<glyph unicode="&#x4a1;" horiz-adv-x="1703" d="M42 966v154h568v-526l519 526h226l-428 -433l483 -687h-206l-397 565l-197 -200v-365h-183v966h-385z" />
<glyph unicode="&#x4a2;" horiz-adv-x="1540" d="M201 0v1493h202v-612h734v612h202v-1323h201v-491h-201v321h-202v711h-734v-711h-202z" />
<glyph unicode="&#x4a3;" horiz-adv-x="1353" d="M193 0v1120h184v-461h599v461h184v-967h184v-436h-184v283h-184v516h-599v-516h-184z" />
<glyph unicode="&#x4a4;" horiz-adv-x="2077" d="M201 0v1493h202v-612h734v612h929v-170h-727v-1323h-202v711h-734v-711h-202z" />
<glyph unicode="&#x4a5;" horiz-adv-x="1796" d="M193 0v1120h184v-461h599v461h790v-170h-606v-950h-184v516h-599v-516h-184z" />
<glyph unicode="&#x4a6;" horiz-adv-x="2214" d="M201 0v1493h1138v-612h417q186 0 299 -119q109 -114 109 -352v-306q0 -270 -102 -392t-330 -122h-76v170h62q134 0 190 75q55 75 55 269v290q0 159 -62 238t-186 79h-376v-711h-202v1323h-734v-1323h-202z" />
<glyph unicode="&#x4a7;" horiz-adv-x="1875" d="M193 0v1120h967v-489h250q263 0 333 -71q82 -81 82 -310v-270q0 -214 -82 -310q-81 -96 -262 -96h-193v156h172q110 0 143 48q38 55 38 202v264q0 164 -38 202q-49 46 -183 41h-260v-487h-184v966h-599v-966h-184z" />
<glyph unicode="&#x4a8;" horiz-adv-x="1798" d="M115 747q0 160 45.5 296t131.5 237.5t209.5 164t280.5 76.5v-167q-115 -22 -200.5 -73t-141.5 -128t-84 -179.5t-28 -226.5q0 -125 30 -236t91.5 -194.5t156.5 -132.5t224 -49q82 0 146 12.5t91 26.5q-57 49 -111 117.5t-95 153.5t-66 183t-25 205q0 66 9.5 135 t30.5 134.5t55 123.5t82.5 101.5t113 68.5t147.5 25q78 0 140.5 -25t111 -67t83.5 -98t57.5 -117.5t33 -125t10.5 -121.5q0 -83 -13 -173t-44.5 -179t-84.5 -174t-134 -159q38 -26 90 -36.5t111 -10.5q62 0 112.5 9.5t101.5 35.5v-168q-46 -23 -106 -32t-121 -9 q-38 0 -78.5 4t-83 14t-86 27.5t-86.5 44.5q-66 -38 -163.5 -64t-218.5 -26q-170 0 -304 58t-228 161.5t-143.5 246t-49.5 310.5zM983 827q0 -98 20 -183.5t53 -156.5t75 -126t86 -92q63 58 104.5 125t65.5 138t34 143.5t10 141.5q0 47 -5.5 98t-17 100.5t-29.5 94t-42 78 t-55 53.5t-69 20q-49 0 -85 -21.5t-61.5 -57t-42 -81t-25.5 -93.5t-12.5 -95.5t-3.5 -85.5z" />
<glyph unicode="&#x4a9;" horiz-adv-x="1419" d="M113 552q0 131 37.5 239t109 186t176 122t238.5 47v-155q-93 -6 -162 -41t-114.5 -92t-68 -133t-22.5 -164q0 -98 25 -178t73 -137t117 -88t157 -31q39 0 82 5.5t71 22.5q-36 37 -67.5 88.5t-55 111.5t-37 125t-13.5 129q0 93 20 172.5t60 137t98 90t135 32.5 q66 0 122 -28.5t96 -80.5t62.5 -125t22.5 -162q0 -155 -46 -275.5t-141 -214.5q35 -19 69 -24t64 -5q27 0 49.5 2t43 7t41.5 14.5t45 24.5v-157q-17 -10 -35.5 -18.5t-41 -14.5t-50.5 -9.5t-65 -3.5q-55 0 -120 14t-132 58q-30 -18 -65 -31.5t-71.5 -22.5t-72 -13.5 t-66.5 -4.5q-135 0 -241 42t-178.5 118.5t-110.5 183.5t-38 237zM848 607q0 -247 119 -369q34 38 56.5 85t35.5 97t18.5 99.5t5.5 92.5q0 75 -11 127.5t-27.5 85.5t-36.5 48.5t-38 15.5q-26 0 -48 -19t-38.5 -55t-26 -88.5t-9.5 -119.5z" />
<glyph unicode="&#x4aa;" horiz-adv-x="1430" d="M592 -240q34 -17 71 -24.5t84 -7.5q59 0 89 24t30 70q0 30 -21.5 73.5t-66.5 104.5h119q55 -62 82 -114.5t27 -100.5q0 -89 -60 -134.5t-178 -45.5q-46 0 -89.5 6t-86.5 18v131zM115 745q0 360 195 567.5t534 207.5q134 0 252.5 -35.5t222.5 -106.5v-213 q-102 95 -217.5 142t-245.5 47q-256 0 -392 -156.5t-136 -452.5q0 -295 136 -451.5t392 -156.5q130 0 245.5 47t217.5 142v-211q-106 -72 -224.5 -108t-250.5 -36q-339 0 -534 207.5t-195 566.5z" />
<glyph unicode="&#x4ab;" horiz-adv-x="1126" d="M434 -240q34 -17 71 -24.5t84 -7.5q59 0 89 24t30 70q0 30 -21.5 73.5t-66.5 104.5h119q55 -62 82 -114.5t27 -100.5q0 -89 -60 -134.5t-178 -45.5q-46 0 -89.5 6t-86.5 18v131zM113 559q0 274 150.5 431t412.5 157q85 0 166 -17.5t157 -52.5v-172q-78 43 -156.5 64.5 t-158.5 21.5q-179 0 -278 -113.5t-99 -318.5t99 -318.5t278 -113.5q80 0 158.5 21.5t156.5 64.5v-170q-77 -36 -159.5 -54t-175.5 -18q-253 0 -402 159t-149 429z" />
<glyph unicode="&#x4ac;" horiz-adv-x="1251" d="M-6 1323v170h1263v-170h-530v-1153h201v-491h-201v321h-203v1323h-530z" />
<glyph unicode="&#x4ad;" horiz-adv-x="1193" d="M60 950v170h1073v-170h-446v-797h184v-436h-184v283h-181v950h-446z" />
<glyph unicode="&#x4ae;" horiz-adv-x="1251" d="M-4 1493h217l414 -614l411 614h217l-528 -782v-711h-203v711z" />
<glyph unicode="&#x4af;" horiz-adv-x="1212" d="M61 1120h195l350 -876l350 876h195l-442 -1102v-444h-195v444z" />
<glyph unicode="&#x4b0;" horiz-adv-x="1251" d="M-4 1493h217l414 -614l411 614h217l-528 -782v-170h264v-170h-264v-371h-203v371h-263v170h263v170z" />
<glyph unicode="&#x4b1;" horiz-adv-x="1212" d="M61 1120h195l350 -876l350 876h195l-442 -1102v-88h262v-170h-262v-186h-195v186h-273v170h273v88z" />
<glyph unicode="&#x4b2;" horiz-adv-x="1403" d="M61 0l533 797l-465 696h217l371 -555l373 555h217l-480 -717l400 -606h112v-491h-197v321h-20l-420 635l-423 -635h-218z" />
<glyph unicode="&#x4b3;" horiz-adv-x="1212" d="M59 0l435 586l-398 534h217l297 -399l297 399h217l-405 -545l313 -422h113v-436h-184v283h-33l-326 440l-326 -440h-217z" />
<glyph unicode="&#x4b4;" horiz-adv-x="1913" d="M-6 1323v170h1263v-170h-530l-1 -1153h734v1323h202v-1323h201v-491h-201v321h-1138v1323h-530z" />
<glyph unicode="&#x4b5;" horiz-adv-x="1652" d="M5 950v170h1073v-170h-446v-797h602v967h184v-967h184v-436h-184v283h-967v950h-446z" />
<glyph unicode="&#x4b6;" horiz-adv-x="1404" d="M175 1182v311h201v-295q0 -159 62 -238t186 -79h376v612h203v-1323h201v-491h-201v321h-203v711h-417q-186 0 -299 119q-109 114 -109 352z" />
<glyph unicode="&#x4b7;" horiz-adv-x="1210" d="M150 886v234h184v-211q0 -117 52 -176q53 -59 157 -59h297v446h184v-967h184v-436h-184v283h-184v521h-343q-153 0 -255 95q-92 86 -92 270z" />
<glyph unicode="&#x4b8;" horiz-adv-x="1404" d="M175 1182v311h201v-295q0 -159 62 -238t186 -79h18v313h144v-313h214v612h203v-1493h-203v711h-214v-305h-144v305h-59q-186 0 -299 119q-109 114 -109 352z" />
<glyph unicode="&#x4b9;" horiz-adv-x="1210" d="M150 886v234h184v-211q0 -117 52 -176q43 -48 119 -57v194h160v-196h175v446h184v-1120h-184v521h-175v-196h-160v196h-8q-153 0 -255 95q-92 86 -92 270z" />
<glyph unicode="&#x4ba;" horiz-adv-x="1404" d="M175 0v1493h203v-612h417q186 0 297 -116.5t111 -354.5v-410h-201v394q0 159 -62 238t-186 79h-376v-711h-203z" />
<glyph unicode="&#x4bb;" horiz-adv-x="1298" d="M186 0v1556h185v-610q66 101 155.5 151t206.5 50q193 0 292 -119.5t99 -351.5v-676h-184v670q0 159 -62 238t-186 79q-149 0 -235 -95t-86 -259v-633h-185z" />
<glyph unicode="&#x4bc;" horiz-adv-x="1927" d="M20 1143v76h170v-62q0 -157 75 -225q66 -57 169 -55q34 263 184 433q188 210 502 210q323 0 504 -210q187 -219 188 -599h-1168q0 -268 137 -421t411 -153q139 0 265 48t238 143v-215q-111 -70 -242 -106q-132 -36 -278 -36q-350 0 -547 205q-188 194 -198 535 q-170 -1 -288 102q-122 107 -122 330zM651 877h941q-24 191 -122 315q-130 164 -350 164t-348 -164q-97 -124 -121 -315z" />
<glyph unicode="&#x4bd;" horiz-adv-x="1491" d="M15 860v70h156v-49q0 -151 48 -184q57 -38 131 -38q26 197 142 327q146 161 401 161q226 0 357 -145q132 -146 132 -396v-90h-846q12 -190 114 -290q103 -99 286 -99q106 0 206 26q99 26 197 78v-174q-99 -42 -203 -64q-110 -23 -211 -22q-269 5 -425 156 q-148 144 -156 389q-144 0 -233 82q-96 90 -96 262zM542 659l656 1q-2 151 -84 241q-83 90 -219 90q-154 0 -247 -87q-92 -87 -106 -245z" />
<glyph unicode="&#x4be;" horiz-adv-x="1927" d="M1032 -215q0 48 26.5 100.5t81.5 114.5h119q-45 -61 -66.5 -105t-21.5 -75q0 -46 27.5 -69t81.5 -23q32 0 63 7.5t62 22.5v-133q-38 -10 -72 -15t-64 -5q-122 0 -179.5 43.5t-57.5 136.5zM20 1143v76h170v-62q0 -157 75 -225q66 -57 169 -55q34 263 184 433 q188 210 502 210q323 0 504 -210q187 -219 188 -599h-1168q0 -268 137 -421t411 -153q139 0 265 48t238 143v-215q-111 -70 -242 -106q-132 -36 -278 -36q-350 0 -547 205q-188 194 -198 535q-170 -1 -288 102q-122 107 -122 330zM651 877h941q-24 191 -122 315 q-130 164 -350 164t-348 -164q-97 -124 -121 -315z" />
<glyph unicode="&#x4bf;" horiz-adv-x="1491" d="M819 -215q0 48 26.5 100.5t81.5 114.5h119q-45 -61 -66.5 -105t-21.5 -75q0 -46 27.5 -69t81.5 -23q32 0 63 7.5t62 22.5v-133q-38 -10 -72 -15t-64 -5q-122 0 -179.5 43.5t-57.5 136.5zM15 860v70h156v-49q0 -151 48 -184q57 -38 131 -38q26 197 142 327 q146 161 401 161q226 0 357 -145q132 -146 132 -396v-90h-846q12 -190 114 -290q103 -99 286 -99q106 0 206 26q99 26 197 78v-174q-99 -42 -203 -64q-110 -23 -211 -22q-269 5 -425 156q-148 144 -156 389q-144 0 -233 82q-96 90 -96 262zM542 659l656 1q-2 151 -84 241 q-83 90 -219 90q-154 0 -247 -87q-92 -87 -106 -245z" />
<glyph unicode="&#x4c0;" horiz-adv-x="604" d="M201 0v1493h202v-1493h-202z" />
<glyph unicode="&#x4c1;" horiz-adv-x="2206" d="M802 1901h118q13 -54 62.5 -82.5t132.5 -28.5q82 0 130.5 27.5t64.5 83.5h118q-10 -119 -90 -180.5t-223 -61.5q-144 0 -223.5 61t-89.5 181zM40 0l580 904l-545 589h245l682 -738v738h202v-738l682 738h245l-545 -589l580 -904h-211l-493 769l-258 -279v-490h-202v490 l-258 279l-493 -769h-211z" />
<glyph unicode="&#x4c2;" horiz-adv-x="1845" d="M623 1608h118q11 -75 59.5 -112.5t135.5 -37.5q86 0 134 37t61 113h118q-10 -143 -89 -215t-224 -72t-224 72t-89 215zM70 0l460 689l-402 431h214l489 -526v526h183v-526l489 526h214l-402 -431l460 -689h-197l-377 566l-187 -201v-365h-183v365l-187 201l-377 -566 h-197z" />
<glyph unicode="&#x4c3;" horiz-adv-x="1343" d="M201 0v1493h202v-631l670 631h260l-652 -612h139q186 0 299 -119q109 -114 109 -352v-306q0 -270 -102 -392t-330 -122h-76v170h62q134 0 190 75q55 75 55 269v290q0 159 -62 238t-186 79h-376v-711h-202z" />
<glyph unicode="&#x4c4;" horiz-adv-x="1237" d="M191 0v1120h185v-483l549 483h235l-554 -489h20q261 0 333 -71q82 -81 82 -310v-270q0 -214 -82 -310q-81 -96 -262 -96h-193v156h172q110 0 143 48q38 55 38 202v264q0 166 -38 202q-44 41 -183 41h-260v-487h-185z" />
<glyph unicode="&#x4c5;" horiz-adv-x="1589" d="M54 -28v167q212 46 279 214q117 293 117 858v282h888v-1323h201v-170l-366 -426h-134l299 426h-202v1323h-485v-212q0 -488 -132 -830q-98 -253 -465 -309z" />
<glyph unicode="&#x4c6;" horiz-adv-x="1373" d="M46 -29v153q179 27 238 154q98 207 98 630v212h757v-967h184v-153l-290 -426h-123l229 426h-184v967h-389v-134q0 -366 -118 -626q-94 -207 -402 -236z" />
<glyph unicode="&#x4c7;" horiz-adv-x="1540" d="M201 0v1493h202v-612h734v612h202v-1389q0 -270 -103 -392t-330 -122h-76v170h62q134 0 190 75q55 75 55 269v607h-734v-711h-202z" />
<glyph unicode="&#x4c8;" horiz-adv-x="1353" d="M193 0v1120h184v-461h599v461h184v-1140q0 -214 -82 -310q-81 -96 -262 -96h-193v156h172q110 0 143 48q38 55 38 202v536h-599v-516h-184z" />
<glyph unicode="&#x4c9;" horiz-adv-x="1590" d="M201 0v1493h202v-612h734v612h202v-1323h201v-170l-366 -426h-134l299 426h-202v711h-734v-711h-202z" />
<glyph unicode="&#x4ca;" horiz-adv-x="1394" d="M193 0v1120h184v-461h599v461h184v-967h184v-153l-290 -426h-123l229 426h-184v516h-599v-516h-184z" />
<glyph unicode="&#x4cb;" horiz-adv-x="1404" d="M175 1182v311h201v-295q0 -159 62 -238t186 -79h376v612h203v-1493h-203v-321h-201v491h201v541h-417q-186 0 -299 119q-109 114 -109 352z" />
<glyph unicode="&#x4cc;" horiz-adv-x="1210" d="M150 886v234h184v-211q0 -117 52 -176q53 -59 157 -59h297v446h184v-1120h-184v-283h-184v436h184v368h-343q-153 0 -255 95q-92 86 -92 270z" />
<glyph unicode="&#x4cd;" horiz-adv-x="1818" d="M201 0v1493h301l381 -1016l383 1016h301v-1323h201v-170l-366 -426h-134l299 426h-197v1311l-385 -1024h-203l-385 1024v-1311h-196z" />
<glyph unicode="&#x4ce;" horiz-adv-x="1586" d="M193 0v1120h262l318 -750l319 750h260v-967h184v-153l-290 -426h-123l229 426h-178v944l-309 -729h-184l-310 729v-944h-178z" />
<glyph unicode="&#x4cf;" horiz-adv-x="569" d="M193 0v1556h184v-1556h-184z" />
<glyph unicode="&#x4d0;" horiz-adv-x="1401" d="M405 1938h118q11 -75 59.5 -112.5t135.5 -37.5q86 0 134 37t61 113h118q-10 -143 -89 -215t-224 -72t-224 72t-89 215zM16 0l570 1493h229l569 -1493h-210l-136 383h-673l-136 -383h-213zM426 551h549l-275 743z" />
<glyph unicode="&#x4d1;" horiz-adv-x="1255" d="M278 1567h118q11 -75 59.5 -112.5t135.5 -37.5q86 0 134 37t61 113h118q-10 -143 -89 -215t-224 -72t-224 72t-89 215zM123 326q0 189 126.5 285t377.5 96h258v18q0 127 -83.5 196.5t-234.5 69.5q-96 0 -187 -23t-175 -69v170q101 39 196 58.5t185 19.5q243 0 363 -126 t120 -382v-639h-184v170q-63 -102 -157 -150.5t-230 -48.5q-172 0 -273.5 96.5t-101.5 258.5zM307 338q0 -98 64.5 -155.5t175.5 -57.5q153 0 245.5 108.5t92.5 288.5v41h-183q-223 0 -309 -51t-86 -174z" />
<glyph unicode="&#x4d2;" horiz-adv-x="1401" d="M16 0l570 1493h229l569 -1493h-210l-136 383h-673l-136 -383h-213zM426 551h549l-275 743zM403 1667v203h203v-203h-203zM794 1667v203h203v-203h-203z" />
<glyph unicode="&#x4d3;" horiz-adv-x="1255" d="M123 326q0 189 126.5 285t377.5 96h258v18q0 127 -83.5 196.5t-234.5 69.5q-96 0 -187 -23t-175 -69v170q101 39 196 58.5t185 19.5q243 0 363 -126t120 -382v-639h-184v170q-63 -102 -157 -150.5t-230 -48.5q-172 0 -273.5 96.5t-101.5 258.5zM307 338 q0 -98 64.5 -155.5t175.5 -57.5q153 0 245.5 108.5t92.5 288.5v41h-183q-223 0 -309 -51t-86 -174zM297 1350v202h203v-202h-203zM688 1350v202h203v-202h-203z" />
<glyph unicode="&#x4d4;" horiz-adv-x="1995" d="M8 0l625 1493h1212v-170h-741v-442h711v-170h-711v-541h760v-170h-963v383h-528l-160 -383h-205zM442 551h459v784h-129z" />
<glyph unicode="&#x4d5;" horiz-adv-x="2011" d="M123 326q0 189 126.5 285t377.5 96h258v18q0 127 -83.5 196.5t-234.5 69.5q-96 0 -187 -23t-175 -69v170q101 39 196 58.5t185 19.5q142 0 248.5 -48t160.5 -136q74 90 180 137t238 47q226 0 358 -145.5t132 -395.5v-90h-846q12 -191 114 -291t285 -100q104 0 204 26.5 t200 79.5v-174q-100 -42 -204 -64t-210 -22q-167 0 -291 60.5t-201 179.5q-73 -120 -181 -180t-251 -60q-189 0 -294 93.5t-105 261.5zM307 338q0 -98 64.5 -155.5t175.5 -57.5q153 0 245.5 108.5t92.5 288.5v41h-183q-223 0 -309 -51t-86 -174zM1063 659l655 1 q-1 151 -83.5 241t-219.5 90q-153 0 -245.5 -87t-106.5 -245z" />
<glyph unicode="&#x4d6;" horiz-adv-x="1294" d="M360 1901h118q13 -54 62.5 -82.5t132.5 -28.5q82 0 130.5 27.5t64.5 83.5h118q-10 -119 -90 -180.5t-223 -61.5q-144 0 -223.5 61t-89.5 181zM201 0v1493h944v-170h-742v-442h711v-170h-711v-541h760v-170h-962z" />
<glyph unicode="&#x4d7;" horiz-adv-x="1260" d="M349 1608h118q11 -75 59.5 -112.5t135.5 -37.5q86 0 134 37t61 113h118q-10 -143 -89 -215t-224 -72t-224 72t-89 215zM113 549q0 275 148.5 436.5t400.5 161.5q226 0 357.5 -145.5t131.5 -395.5v-90h-846q12 -190 114.5 -289.5t285.5 -99.5q106 0 205.5 26t197.5 78 v-174q-99 -42 -203 -64t-211 -22q-268 0 -424.5 156t-156.5 422zM311 659l656 1q-2 151 -84.5 241t-218.5 90q-154 0 -246.5 -87t-106.5 -245z" />
<glyph unicode="&#x4d8;" horiz-adv-x="1612" d="M117 780h1167q0 268 -137.5 421t-411.5 153q-139 0 -265 -48t-238 -143v215q111 70 242.5 106t277.5 36q350 0 547.5 -204.5t197.5 -570.5q0 -353 -188 -563.5t-502 -210.5q-329 0 -509.5 219.5t-180.5 589.5zM337 614q13 -195 140.5 -337t329.5 -142t329.5 142 t140.5 337h-940z" />
<glyph unicode="&#x4d9;" horiz-adv-x="1260" d="M113 512v90h846q-12 190 -114.5 289.5t-285.5 99.5q-106 0 -205.5 -26t-197.5 -78v174q99 42 203 64t211 22q268 0 424.5 -156t156.5 -422q0 -275 -148.5 -436.5t-400.5 -161.5q-226 0 -357.5 145.5t-131.5 395.5zM297 458q2 -151 84.5 -241t218.5 -90q154 0 246.5 87 t106.5 245z" />
<glyph unicode="&#x4da;" horiz-adv-x="1612" d="M503 1667v203h203v-203h-203zM894 1667v203h203v-203h-203zM117 780h1167q0 268 -137.5 421t-411.5 153q-139 0 -265 -48t-238 -143v215q111 70 242.5 106t277.5 36q350 0 547.5 -204.5t197.5 -570.5q0 -353 -188 -563.5t-502 -210.5q-329 0 -509.5 219.5t-180.5 589.5z M337 614q13 -195 140.5 -337t329.5 -142t329.5 142t140.5 337h-940z" />
<glyph unicode="&#x4db;" horiz-adv-x="1260" d="M299 1350v202h203v-202h-203zM690 1350v202h203v-202h-203zM113 512v90h846q-12 190 -114.5 289.5t-285.5 99.5q-106 0 -205.5 -26t-197.5 -78v174q99 42 203 64t211 22q268 0 424.5 -156t156.5 -422q0 -275 -148.5 -436.5t-400.5 -161.5q-226 0 -357.5 145.5 t-131.5 395.5zM297 458q2 -151 84.5 -241t218.5 -90q154 0 246.5 87t106.5 245z" />
<glyph unicode="&#x4dc;" horiz-adv-x="2206" d="M808 1667v203h203v-203h-203zM1199 1667v203h203v-203h-203zM40 0l580 904l-545 589h245l682 -738v738h202v-738l682 738h245l-545 -589l580 -904h-211l-493 769l-258 -279v-490h-202v490l-258 279l-493 -769h-211z" />
<glyph unicode="&#x4dd;" horiz-adv-x="1845" d="M629 1350v202h203v-202h-203zM1020 1350v202h203v-202h-203zM70 0l460 689l-402 431h214l489 -526v526h183v-526l489 526h214l-402 -431l460 -689h-197l-377 566l-187 -201v-365h-183v365l-187 201l-377 -566h-197z" />
<glyph unicode="&#x4de;" horiz-adv-x="1313" d="M350 1667v203h203v-203h-203zM741 1667v203h203v-203h-203zM135 65v208q153 -89 237.5 -110.5t208.5 -21.5q188 0 292 72t104 221q0 132 -92.5 206.5t-287.5 74.5h-204v166h212q179 0 258 59.5t79 171.5q0 115 -81.5 176.5t-279.5 61.5q-134 0 -180 -12t-251 -89v197 q113 40 231 57t204 17q246 0 402 -104.5t156 -282.5q0 -124 -71 -209.5t-202 -118.5q145 -31 226.5 -129t81.5 -242q0 -230 -177.5 -346.5t-415.5 -116.5q-122 0 -264 33t-186 61z" />
<glyph unicode="&#x4df;" horiz-adv-x="1089" d="M273 1350v202h203v-202h-203zM664 1350v202h203v-202h-203zM133 27v171q71 -37 156 -55.5t178 -18.5q151 0 235.5 56t84.5 146q0 88 -75 141.5t-212 53.5h-148v152h155q116 0 183.5 44.5t67.5 114.5q0 64 -69.5 110t-188.5 46q-71 0 -151.5 -13t-177.5 -42v167 q98 24 183 36t161 12q196 0 309.5 -78.5t113.5 -219.5q0 -93 -60 -157.5t-172 -88.5q124 -24 193 -97t69 -181q0 -173 -129 -264t-367 -91q-80 0 -164.5 14t-174.5 42z" />
<glyph unicode="&#x4e0;" horiz-adv-x="1364" d="M160 1323v170h1024v-154l-411 -490q106 0 234 -56q98 -42 184 -151q81 -104 81 -242q0 -220 -152 -342q-152 -121 -432 -121q-119 0 -244 19q-126 18 -260 55v195q106 -49 233 -74q126 -25 263 -25q192 0 291 75q100 75 100 218q0 134 -92 207q-93 74 -258 74h-174v152 l385 490h-772z" />
<glyph unicode="&#x4e1;" horiz-adv-x="1183" d="M88 -167q84 -49 184 -74t209 -25q190 0 289 75q100 75 100 218q0 132 -92 207q-93 74 -258 74h-174v166l430 499h-667v147h874v-168l-411 -476q106 0 234 -56q98 -42 184 -151q81 -104 81 -242q0 -221 -152 -342t-432 -121q-94 0 -193 18q-100 19 -206 56v195z" />
<glyph unicode="&#x4e2;" horiz-adv-x="1532" d="M458 1693v148h598v-148h-598zM201 0v1493h196v-1249l662 1249h272v-1493h-196v1249l-662 -1249h-272z" />
<glyph unicode="&#x4e3;" horiz-adv-x="1331" d="M359 1377v148h598v-148h-598zM186 0v1120h183v-897l539 897h237v-1120h-183v899l-540 -899h-236z" />
<glyph unicode="&#x4e4;" horiz-adv-x="1532" d="M460 1667v203h203v-203h-203zM851 1667v203h203v-203h-203zM201 0v1493h196v-1249l662 1249h272v-1493h-196v1249l-662 -1249h-272z" />
<glyph unicode="&#x4e5;" horiz-adv-x="1331" d="M361 1350v202h203v-202h-203zM752 1350v202h203v-202h-203zM186 0v1120h183v-897l539 897h237v-1120h-183v899l-540 -899h-236z" />
<glyph unicode="&#x4e6;" horiz-adv-x="1612" d="M115 745q0 354 188.5 564.5t503.5 210.5q314 0 502 -210.5t188 -564.5q0 -353 -188 -563.5t-502 -210.5q-315 0 -503.5 210t-188.5 564zM328 745q0 -282 129.5 -446t349.5 -164t348.5 164t128.5 446q0 283 -128.5 447t-348.5 164t-349.5 -164t-129.5 -447zM510 1667v203 h203v-203h-203zM901 1667v203h203v-203h-203z" />
<glyph unicode="&#x4e7;" horiz-adv-x="1253" d="M113 559q0 276 136.5 432t377.5 156q240 0 377 -156t137 -432q0 -275 -137 -431.5t-377 -156.5q-241 0 -377.5 156.5t-136.5 431.5zM307 559q0 -201 85.5 -316.5t234.5 -115.5q147 0 233 116t86 316q0 199 -86 315.5t-233 116.5q-148 0 -234 -115.5t-86 -316.5zM330 1350 v202h203v-202h-203zM721 1350v202h203v-202h-203z" />
<glyph unicode="&#x4e8;" horiz-adv-x="1612" d="M115 745q0 354 188.5 564.5t502.5 210.5q315 0 503 -210.5t188 -563.5q0 -354 -188 -564.5t-503 -210.5q-314 0 -502.5 210t-188.5 564zM328 710q8 -257 133.5 -416t345.5 -159t344 158.5t132 416.5h-955zM338 877h940q-14 195 -141 337t-329 142t-330 -142t-140 -337z " />
<glyph unicode="&#x4e9;" horiz-adv-x="1253" d="M113 559q0 276 136.5 432t377.5 156q240 0 377 -156t137 -432q0 -275 -137 -431.5t-377 -156.5q-241 0 -377.5 156.5t-136.5 431.5zM309 507q0 -148 84 -264t233 -116t233 116t84 264h-634zM311 671h628q-18 127 -92.5 223.5t-221.5 96.5t-221.5 -96.5t-92.5 -223.5z" />
<glyph unicode="&#x4ea;" horiz-adv-x="1612" d="M115 745q0 354 188.5 564.5t502.5 210.5q315 0 503 -210.5t188 -563.5q0 -354 -188 -564.5t-503 -210.5q-314 0 -502.5 210t-188.5 564zM328 710q8 -257 133.5 -416t345.5 -159t344 158.5t132 416.5h-955zM338 877h940q-14 195 -141 337t-329 142t-330 -142t-140 -337z M510 1667v203h203v-203h-203zM901 1667v203h203v-203h-203z" />
<glyph unicode="&#x4eb;" horiz-adv-x="1253" d="M113 559q0 276 136.5 432t377.5 156q240 0 377 -156t137 -432q0 -275 -137 -431.5t-377 -156.5q-241 0 -377.5 156.5t-136.5 431.5zM309 507q0 -148 84 -264t233 -116t233 116t84 264h-634zM311 671h628q-18 127 -92.5 223.5t-221.5 96.5t-221.5 -96.5t-92.5 -223.5z M330 1350v202h203v-202h-203zM721 1350v202h203v-202h-203z" />
<glyph unicode="&#x4ec;" horiz-adv-x="1430" d="M318 1667v203h203v-203h-203zM709 1667v203h203v-203h-203zM111 115v211q211 -189 467 -189q264 0 383 142t141 381h-798v170h798q-22 239 -141 381.5t-383 142.5q-256 0 -467 -189v213q208 142 479 142q335 0 530 -207.5t195 -566.5q0 -360 -195 -567.5t-530 -207.5 q-267 0 -479 144z" />
<glyph unicode="&#x4ed;" horiz-adv-x="1124" d="M185 1350v202h203v-202h-203zM576 1350v202h203v-202h-203zM113 43v170q158 -86 315 -86q147 0 252 85.5t124 303.5h-568v147h562q-12 105 -91.5 216.5t-278.5 111.5q-154 0 -315 -86v172q157 70 323 70q262 0 412.5 -158.5t150.5 -429.5q0 -270 -146.5 -429t-403.5 -159 q-189 0 -336 72z" />
<glyph unicode="&#x4ee;" horiz-adv-x="1248" d="M327 1693v148h598v-148h-598zM35 1493h217l371 -876l373 876h217l-558 -1312q-21 -50 -53 -88q-79 -93 -330 -93h-77v170h63q119 0 165 27q28 17 46 59l45 106z" />
<glyph unicode="&#x4ef;" horiz-adv-x="1212" d="M307 1377v148h598v-148h-598zM61 1120h195l350 -876l350 876h195l-492 -1224q-78 -200 -152 -261t-198 -61h-147v154h108q76 0 118 36t93 170l33 84z" />
<glyph unicode="&#x4f0;" horiz-adv-x="1248" d="M329 1667v203h203v-203h-203zM720 1667v203h203v-203h-203zM35 1493h217l371 -876l373 876h217l-558 -1312q-21 -50 -53 -88q-79 -93 -330 -93h-77v170h63q119 0 165 27q28 17 46 59l45 106z" />
<glyph unicode="&#x4f1;" horiz-adv-x="1212" d="M309 1350v202h203v-202h-203zM700 1350v202h203v-202h-203zM61 1120h195l350 -876l350 876h195l-492 -1224q-78 -200 -152 -261t-198 -61h-147v154h108q76 0 118 36t93 170l33 84z" />
<glyph unicode="&#x4f2;" horiz-adv-x="1248" d="M344 1635l196 264h185l-228 -264h-153zM679 1635l196 264h185l-228 -264h-153zM35 1493h217l371 -876l373 876h217l-558 -1312q-21 -50 -53 -88q-79 -93 -330 -93h-77v170h63q119 0 165 27q28 17 46 59l45 106z" />
<glyph unicode="&#x4f3;" horiz-adv-x="1212" d="M334 1262l190 376h170l-223 -376h-137zM653 1262l205 376h178l-248 -376h-135zM61 1120h195l350 -876l350 876h195l-492 -1224q-78 -200 -152 -261t-198 -61h-147v154h108q76 0 118 36t93 170l33 84z" />
<glyph unicode="&#x4f4;" horiz-adv-x="1404" d="M419 1667v203h203v-203h-203zM810 1667v203h203v-203h-203zM175 1083v410h201v-394q0 -159 62 -238t186 -79h376v711h203v-1493h-203v612h-417q-186 0 -297 116.5t-111 354.5z" />
<glyph unicode="&#x4f5;" horiz-adv-x="1210" d="M309 1350v202h203v-202h-203zM700 1350v202h203v-202h-203zM150 836v284h184v-267q0 -117 52 -176q53 -59 157 -59h297v502h184v-1120h-184v471h-343q-153 0 -255 95q-92 86 -92 270z" />
<glyph unicode="&#x4f6;" horiz-adv-x="1249" d="M201 0v1493h929v-170h-727v-1153h201v-491h-201v321h-202z" />
<glyph unicode="&#x4f7;" horiz-adv-x="1076" d="M186 0v1120h790v-170h-606v-797h184v-436h-184v283h-184z" />
<glyph unicode="&#x4f8;" horiz-adv-x="1807" d="M201 0v1493h202v-614h334q251 0 387 -109t136 -331q0 -221 -136 -330t-387 -109h-536zM403 166h324q163 0 241 68q79 67 79 205q0 139 -79 207q-78 67 -241 67h-324v-547zM1404 0v1493h202v-1493h-202zM654 1667v203h203v-203h-203zM1045 1667v203h203v-203h-203z" />
<glyph unicode="&#x4f9;" horiz-adv-x="1617" d="M1251 0v1120h184v-1120h-184zM1343 1147zM186 0v1120h185v-457h270q214 0 329.5 -81.5t115.5 -249.5t-115.5 -250t-329.5 -82h-455zM371 147h262q126 0 191.5 47.5t65.5 137.5t-65.5 137t-191.5 47h-262v-369zM479 1350v202h203v-202h-203zM870 1350v202h203v-202h-203z " />
<glyph unicode="&#x4fa;" horiz-adv-x="1382" d="M71 660v170h263v663h929v-170h-727v-493h547v-170h-547v-532h361v-148q0 -200 -71 -296q-82 -110 -273 -110h-254v156h233q105 0 143 48.5t38 221.5h-379v660h-263z" />
<glyph unicode="&#x4fb;" horiz-adv-x="1209" d="M56 500v170h263v450h790v-157h-606v-293h416v-170h-416v-372h366v-148q0 -200 -70 -296q-82 -110 -274 -110h-254v156h233q106 0 143.5 48.5t37.5 221.5h-366v500h-263z" />
<glyph unicode="&#x4fc;" horiz-adv-x="1403" d="M61 0l533 797l-465 696h217l371 -555l373 555h217l-480 -717l495 -750q1 -2 -1 -26q-15 -190 -98 -288q-102 -122 -330 -122h-76v170h62q135 0 190 75q40 53 51 168l-418 632l-423 -635h-218z" />
<glyph unicode="&#x4fd;" horiz-adv-x="1212" d="M59 0l435 586l-398 534h217l297 -399l297 399h217l-405 -545l363 -489q27 -38 27 -95q0 -205 -67 -302q-81 -115 -277 -115h-193v156q196 0 221 3q79 10 105.5 64.5t26.5 206.5l-323 436l-326 -440h-217z" />
<glyph unicode="&#x4fe;" horiz-adv-x="1403" d="M61 0l468 700h-372v144h406l-434 649h217l371 -555l373 555h217l-434 -649h372v-144h-368l462 -700h-217l-420 635l-423 -635h-218z" />
<glyph unicode="&#x4ff;" horiz-adv-x="1212" d="M59 0l383 516h-289v144h286l-343 460h217l297 -399l297 399h217l-342 -460h269v-144h-288l382 -516h-217l-326 440l-326 -440h-217z" />
<glyph unicode="&#x2000;" horiz-adv-x="1046" />
<glyph unicode="&#x2001;" horiz-adv-x="2093" />
<glyph unicode="&#x2002;" horiz-adv-x="1046" />
<glyph unicode="&#x2003;" horiz-adv-x="2093" />
<glyph unicode="&#x2004;" horiz-adv-x="697" />
<glyph unicode="&#x2005;" horiz-adv-x="523" />
<glyph unicode="&#x2006;" horiz-adv-x="348" />
<glyph unicode="&#x2007;" horiz-adv-x="348" />
<glyph unicode="&#x2008;" horiz-adv-x="261" />
<glyph unicode="&#x2009;" horiz-adv-x="418" />
<glyph unicode="&#x200a;" horiz-adv-x="116" />
<glyph unicode="&#x2010;" horiz-adv-x="739" d="M100 479v164h539v-164h-539z" />
<glyph unicode="&#x2011;" horiz-adv-x="739" d="M100 479v164h539v-164h-539z" />
<glyph unicode="&#x2012;" horiz-adv-x="739" d="M100 479v164h539v-164h-539z" />
<glyph unicode="&#x2013;" horiz-adv-x="1024" d="M100 489v144h824v-144h-824z" />
<glyph unicode="&#x2014;" horiz-adv-x="2048" d="M100 489v144h1848v-144h-1848z" />
<glyph unicode="&#x2018;" horiz-adv-x="651" d="M174 1001v173l164 319h129l-82 -319v-173h-211z" />
<glyph unicode="&#x2019;" horiz-adv-x="651" d="M178 1022l82 319v152h211v-152l-164 -319h-129z" />
<glyph unicode="&#x201a;" horiz-adv-x="651" d="M174 -238l82 320v172h211v-172l-164 -320h-129z" />
<glyph unicode="&#x201c;" horiz-adv-x="1061" d="M174 1001v173l164 319h129l-82 -319v-173h-211zM584 1001v173l164 319h129l-82 -319v-173h-211z" />
<glyph unicode="&#x201d;" horiz-adv-x="1061" d="M174 1001l82 320v172h211v-172l-164 -320h-129zM584 1001l82 320v172h211v-172l-164 -320h-129z" />
<glyph unicode="&#x201e;" horiz-adv-x="1061" d="M174 -238l82 320v172h211v-172l-164 -320h-129zM584 -238l82 320v172h211v-172l-164 -320h-129z" />
<glyph unicode="&#x2026;" horiz-adv-x="2048" d="M236 0v254h213v-254h-213zM918 0v254h212v-254h-212zM1599 0v254h213v-254h-213z" />
<glyph unicode="&#x202f;" horiz-adv-x="418" />
<glyph unicode="&#x2039;" horiz-adv-x="819" d="M158 559v82l469 418v-191l-301 -268l301 -268v-191z" />
<glyph unicode="&#x203a;" horiz-adv-x="819" d="M193 141v191l301 268l-301 268v191l469 -418v-82z" />
<glyph unicode="&#x205f;" horiz-adv-x="523" />
<glyph unicode="&#x20ac;" d="M0 520l55 123h139q0 23 -0.5 46.5t-0.5 55.5q0 35 0.5 58.5t0.5 46.5h-194l55 123h156q40 257 195 402t391 145q98 0 190.5 -35.5t179.5 -106.5v-213q-91 105 -175.5 150t-186.5 45q-157 0 -258 -100t-133 -287h577l-55 -123h-538q-2 -24 -2.5 -47t-0.5 -58 q0 -32 0.5 -55t2.5 -47h446l-56 -123h-374q32 -187 133 -288t258 -101q102 0 186.5 45t175.5 150v-211q-89 -72 -181.5 -108t-188.5 -36q-237 0 -391.5 145t-194.5 404h-211z" />
<glyph unicode="&#x2122;" horiz-adv-x="2048" d="M295 1399v94h518v-94h-203v-484h-114v484h-201zM926 915v578h172l174 -256l164 256h170v-578h-113v484l-195 -303h-55l-203 303v-484h-114z" />
<glyph unicode="&#xa64c;" horiz-adv-x="2416" d="M118 509q0 198 67 424q71 236 182 388h249q-126 -107 -217 -350q-85 -226 -85 -408q0 -326 256 -326q138 0 231 54q76 51 151 102q102 54 259 54q155 0 255 -54q75 -51 149 -102q93 -54 231 -54q256 0 256 326q0 182 -85 408q-91 243 -217 350h250q111 -152 181 -388 q67 -226 67 -423q0 -242 -102 -381q-116 -158 -350 -158q-91 0 -201 68q-97 64 -193 128q-122 68 -242 68q-122 0 -245 -68l-194 -128q-110 -68 -201 -68q-234 0 -350 157q-102 139 -102 381z" />
<glyph unicode="&#xa64d;" horiz-adv-x="2105" d="M152 404q0 276 138 561h198q-146 -327 -146 -577q0 -261 208 -261q62 0 135 56q120 91 141 103q100 55 226 55t226 -55q20 -12 141 -103q73 -56 136 -56q208 0 208 263q0 248 -146 575h198q138 -285 138 -562q0 -432 -398 -432q-84 0 -233.5 113t-269.5 113t-270 -113 t-232 -113q-398 0 -398 433z" />
<glyph unicode="&#xe000;" horiz-adv-x="1120" d="M0 1120h1120v-1120h-1120v1120z" />
<glyph horiz-adv-x="0" d="M-809 1294v203h203v-203h-203zM-418 1294v203h203v-203h-203z" />
<glyph horiz-adv-x="0" d="M-653 1262l196 264h185l-228 -264h-153z" />
<glyph horiz-adv-x="0" d="M-756 1526h187l196 -264h-153z" />
<glyph horiz-adv-x="0" d="M-825 1528h118q13 -54 62.5 -82.5t132.5 -28.5q82 0 130.5 27.5t64.5 83.5h118q-10 -119 -90 -180.5t-223 -61.5q-144 0 -223.5 61t-89.5 181z" />
<glyph horiz-adv-x="0" d="M-794 1262l196 264h185l-228 -264h-153zM-459 1262l196 264h185l-228 -264h-153z" />
<glyph horiz-adv-x="0" d="M-946 1526h185l196 -264h-153zM-611 1526h185l196 -264h-153z" />
<glyph horiz-adv-x="1715" d="M407 1504h900l-100 -200h-50l-50 100h-175l-50 -100h-50l-50 100h-175l-50 -100h-50z" />
<glyph horiz-adv-x="1582" d="M201 0v1493h196v-1249l662 1249h272v-1323h201v-170l-366 -426h-134l299 426h-196v1249l-662 -1249h-272z" />
<glyph horiz-adv-x="1386" d="M193 0v1120h183v-897l539 897h237v-967h184v-153l-290 -426h-123l229 426h-183v899l-540 -899h-236z" />
</font>
</defs>
</svg>
